<mxfile host="app.diagrams.net" modified="2024-02-07T07:00:34.628Z" agent="Mozilla/5.0 (X11; Linux x86_64) AppleWebKit/537.36 (KHTML, like Gecko) Chrome/120.0.0.0 Safari/537.36" etag="zr8xAYLEeRnYLFu2nvkj" version="23.1.0" type="github">
  <diagram name="Halaman-1" id="zzA9nv3nYk74R4sD8d4M">
    <mxGraphModel dx="4295" dy="2420" grid="1" gridSize="10" guides="1" tooltips="1" connect="1" arrows="1" fold="1" page="1" pageScale="1" pageWidth="827" pageHeight="1169" math="0" shadow="0">
      <root>
        <mxCell id="0" />
        <mxCell id="1" parent="0" />
        <mxCell id="QgCSMlxWgUbur18fvCFO-135" value="" style="rounded=0;whiteSpace=wrap;html=1;" vertex="1" parent="1">
          <mxGeometry x="950" y="230" width="2410" height="570" as="geometry" />
        </mxCell>
        <mxCell id="QgCSMlxWgUbur18fvCFO-116" value="" style="whiteSpace=wrap;html=1;aspect=fixed;" vertex="1" parent="1">
          <mxGeometry x="240" y="800" width="500" height="500" as="geometry" />
        </mxCell>
        <mxCell id="QgCSMlxWgUbur18fvCFO-113" value="" style="whiteSpace=wrap;html=1;aspect=fixed;" vertex="1" parent="1">
          <mxGeometry x="240" y="250" width="500" height="500" as="geometry" />
        </mxCell>
        <mxCell id="QgCSMlxWgUbur18fvCFO-9" style="rounded=0;orthogonalLoop=1;jettySize=auto;html=1;entryX=1;entryY=1;entryDx=0;entryDy=0;endArrow=none;endFill=0;" edge="1" parent="1" source="QgCSMlxWgUbur18fvCFO-1" target="QgCSMlxWgUbur18fvCFO-2">
          <mxGeometry relative="1" as="geometry" />
        </mxCell>
        <mxCell id="QgCSMlxWgUbur18fvCFO-10" style="rounded=0;orthogonalLoop=1;jettySize=auto;html=1;exitX=0.5;exitY=0;exitDx=0;exitDy=0;entryX=0.5;entryY=1;entryDx=0;entryDy=0;endArrow=none;endFill=0;" edge="1" parent="1" source="QgCSMlxWgUbur18fvCFO-1" target="QgCSMlxWgUbur18fvCFO-3">
          <mxGeometry relative="1" as="geometry" />
        </mxCell>
        <mxCell id="QgCSMlxWgUbur18fvCFO-11" style="rounded=0;orthogonalLoop=1;jettySize=auto;html=1;exitX=1;exitY=0;exitDx=0;exitDy=0;entryX=0;entryY=0.5;entryDx=0;entryDy=0;endArrow=none;endFill=0;" edge="1" parent="1" source="QgCSMlxWgUbur18fvCFO-1" target="QgCSMlxWgUbur18fvCFO-4">
          <mxGeometry relative="1" as="geometry" />
        </mxCell>
        <mxCell id="QgCSMlxWgUbur18fvCFO-12" style="rounded=0;orthogonalLoop=1;jettySize=auto;html=1;exitX=1;exitY=0.5;exitDx=0;exitDy=0;endArrow=none;endFill=0;" edge="1" parent="1" source="QgCSMlxWgUbur18fvCFO-1" target="QgCSMlxWgUbur18fvCFO-5">
          <mxGeometry relative="1" as="geometry" />
        </mxCell>
        <mxCell id="QgCSMlxWgUbur18fvCFO-13" style="rounded=0;orthogonalLoop=1;jettySize=auto;html=1;exitX=0.75;exitY=1;exitDx=0;exitDy=0;endArrow=none;endFill=0;" edge="1" parent="1" source="QgCSMlxWgUbur18fvCFO-1" target="QgCSMlxWgUbur18fvCFO-6">
          <mxGeometry relative="1" as="geometry" />
        </mxCell>
        <mxCell id="QgCSMlxWgUbur18fvCFO-14" style="rounded=0;orthogonalLoop=1;jettySize=auto;html=1;exitX=0;exitY=1;exitDx=0;exitDy=0;entryX=1;entryY=1;entryDx=0;entryDy=0;endArrow=none;endFill=0;" edge="1" parent="1" source="QgCSMlxWgUbur18fvCFO-1" target="QgCSMlxWgUbur18fvCFO-7">
          <mxGeometry relative="1" as="geometry" />
        </mxCell>
        <mxCell id="QgCSMlxWgUbur18fvCFO-1" value="curriculums" style="rounded=0;whiteSpace=wrap;html=1;" vertex="1" parent="1">
          <mxGeometry x="430" y="480" width="120" height="60" as="geometry" />
        </mxCell>
        <mxCell id="QgCSMlxWgUbur18fvCFO-2" value="&lt;u&gt;id&lt;/u&gt;" style="ellipse;whiteSpace=wrap;html=1;" vertex="1" parent="1">
          <mxGeometry x="294" y="360" width="120" height="80" as="geometry" />
        </mxCell>
        <mxCell id="QgCSMlxWgUbur18fvCFO-3" value="subject" style="ellipse;whiteSpace=wrap;html=1;" vertex="1" parent="1">
          <mxGeometry x="450" y="340" width="120" height="80" as="geometry" />
        </mxCell>
        <mxCell id="QgCSMlxWgUbur18fvCFO-4" value="semester_credit_unit" style="ellipse;whiteSpace=wrap;html=1;" vertex="1" parent="1">
          <mxGeometry x="610" y="410" width="120" height="80" as="geometry" />
        </mxCell>
        <mxCell id="QgCSMlxWgUbur18fvCFO-5" value="theory_or_practice" style="ellipse;whiteSpace=wrap;html=1;" vertex="1" parent="1">
          <mxGeometry x="580" y="510" width="120" height="80" as="geometry" />
        </mxCell>
        <mxCell id="QgCSMlxWgUbur18fvCFO-6" value="academic_semester" style="ellipse;whiteSpace=wrap;html=1;" vertex="1" parent="1">
          <mxGeometry x="510" y="610" width="120" height="80" as="geometry" />
        </mxCell>
        <mxCell id="QgCSMlxWgUbur18fvCFO-7" value="updated_at" style="ellipse;whiteSpace=wrap;html=1;" vertex="1" parent="1">
          <mxGeometry x="250" y="470" width="120" height="80" as="geometry" />
        </mxCell>
        <mxCell id="QgCSMlxWgUbur18fvCFO-8" value="created_at" style="ellipse;whiteSpace=wrap;html=1;" vertex="1" parent="1">
          <mxGeometry x="320" y="585" width="120" height="80" as="geometry" />
        </mxCell>
        <mxCell id="QgCSMlxWgUbur18fvCFO-15" style="rounded=0;orthogonalLoop=1;jettySize=auto;html=1;exitX=0.5;exitY=1;exitDx=0;exitDy=0;entryX=0.996;entryY=0.442;entryDx=0;entryDy=0;entryPerimeter=0;endArrow=none;endFill=0;" edge="1" parent="1" source="QgCSMlxWgUbur18fvCFO-1" target="QgCSMlxWgUbur18fvCFO-8">
          <mxGeometry relative="1" as="geometry" />
        </mxCell>
        <mxCell id="QgCSMlxWgUbur18fvCFO-17" style="rounded=0;orthogonalLoop=1;jettySize=auto;html=1;entryX=1;entryY=1;entryDx=0;entryDy=0;endArrow=none;endFill=0;" edge="1" parent="1" source="QgCSMlxWgUbur18fvCFO-23" target="QgCSMlxWgUbur18fvCFO-24">
          <mxGeometry relative="1" as="geometry" />
        </mxCell>
        <mxCell id="QgCSMlxWgUbur18fvCFO-18" style="rounded=0;orthogonalLoop=1;jettySize=auto;html=1;exitX=0.5;exitY=0;exitDx=0;exitDy=0;entryX=0.5;entryY=1;entryDx=0;entryDy=0;endArrow=none;endFill=0;" edge="1" parent="1" source="QgCSMlxWgUbur18fvCFO-23" target="QgCSMlxWgUbur18fvCFO-25">
          <mxGeometry relative="1" as="geometry" />
        </mxCell>
        <mxCell id="QgCSMlxWgUbur18fvCFO-22" style="rounded=0;orthogonalLoop=1;jettySize=auto;html=1;exitX=0;exitY=1;exitDx=0;exitDy=0;entryX=1;entryY=1;entryDx=0;entryDy=0;endArrow=none;endFill=0;" edge="1" parent="1" source="QgCSMlxWgUbur18fvCFO-23" target="QgCSMlxWgUbur18fvCFO-29">
          <mxGeometry relative="1" as="geometry" />
        </mxCell>
        <mxCell id="QgCSMlxWgUbur18fvCFO-23" value="visitors" style="rounded=0;whiteSpace=wrap;html=1;" vertex="1" parent="1">
          <mxGeometry x="394" y="1040" width="120" height="60" as="geometry" />
        </mxCell>
        <mxCell id="QgCSMlxWgUbur18fvCFO-24" value="&lt;u&gt;id&lt;/u&gt;" style="ellipse;whiteSpace=wrap;html=1;" vertex="1" parent="1">
          <mxGeometry x="334" y="920" width="120" height="80" as="geometry" />
        </mxCell>
        <mxCell id="QgCSMlxWgUbur18fvCFO-25" value="status" style="ellipse;whiteSpace=wrap;html=1;" vertex="1" parent="1">
          <mxGeometry x="500" y="920" width="120" height="80" as="geometry" />
        </mxCell>
        <mxCell id="QgCSMlxWgUbur18fvCFO-29" value="updated_at" style="ellipse;whiteSpace=wrap;html=1;" vertex="1" parent="1">
          <mxGeometry x="280" y="1110" width="120" height="80" as="geometry" />
        </mxCell>
        <mxCell id="QgCSMlxWgUbur18fvCFO-30" value="created_at" style="ellipse;whiteSpace=wrap;html=1;" vertex="1" parent="1">
          <mxGeometry x="500" y="1120" width="120" height="80" as="geometry" />
        </mxCell>
        <mxCell id="QgCSMlxWgUbur18fvCFO-31" style="rounded=0;orthogonalLoop=1;jettySize=auto;html=1;exitX=0.5;exitY=1;exitDx=0;exitDy=0;entryX=0;entryY=0.5;entryDx=0;entryDy=0;endArrow=none;endFill=0;" edge="1" parent="1" source="QgCSMlxWgUbur18fvCFO-23" target="QgCSMlxWgUbur18fvCFO-30">
          <mxGeometry relative="1" as="geometry" />
        </mxCell>
        <mxCell id="QgCSMlxWgUbur18fvCFO-32" style="rounded=0;orthogonalLoop=1;jettySize=auto;html=1;entryX=1;entryY=1;entryDx=0;entryDy=0;endArrow=none;endFill=0;" edge="1" parent="1" source="QgCSMlxWgUbur18fvCFO-38" target="QgCSMlxWgUbur18fvCFO-39">
          <mxGeometry relative="1" as="geometry" />
        </mxCell>
        <mxCell id="QgCSMlxWgUbur18fvCFO-33" style="rounded=0;orthogonalLoop=1;jettySize=auto;html=1;exitX=0.5;exitY=0;exitDx=0;exitDy=0;entryX=0.5;entryY=1;entryDx=0;entryDy=0;endArrow=none;endFill=0;" edge="1" parent="1" source="QgCSMlxWgUbur18fvCFO-38" target="QgCSMlxWgUbur18fvCFO-40">
          <mxGeometry relative="1" as="geometry" />
        </mxCell>
        <mxCell id="QgCSMlxWgUbur18fvCFO-34" style="rounded=0;orthogonalLoop=1;jettySize=auto;html=1;exitX=1;exitY=0;exitDx=0;exitDy=0;entryX=0;entryY=0.5;entryDx=0;entryDy=0;endArrow=none;endFill=0;" edge="1" parent="1" source="QgCSMlxWgUbur18fvCFO-38" target="QgCSMlxWgUbur18fvCFO-41">
          <mxGeometry relative="1" as="geometry" />
        </mxCell>
        <mxCell id="QgCSMlxWgUbur18fvCFO-35" style="rounded=0;orthogonalLoop=1;jettySize=auto;html=1;exitX=1;exitY=0.5;exitDx=0;exitDy=0;endArrow=none;endFill=0;" edge="1" parent="1" source="QgCSMlxWgUbur18fvCFO-38" target="QgCSMlxWgUbur18fvCFO-42">
          <mxGeometry relative="1" as="geometry" />
        </mxCell>
        <mxCell id="QgCSMlxWgUbur18fvCFO-37" style="rounded=0;orthogonalLoop=1;jettySize=auto;html=1;exitX=0;exitY=1;exitDx=0;exitDy=0;entryX=1;entryY=1;entryDx=0;entryDy=0;endArrow=none;endFill=0;" edge="1" parent="1" source="QgCSMlxWgUbur18fvCFO-38" target="QgCSMlxWgUbur18fvCFO-44">
          <mxGeometry relative="1" as="geometry" />
        </mxCell>
        <mxCell id="QgCSMlxWgUbur18fvCFO-38" value="proposer_identities" style="rounded=0;whiteSpace=wrap;html=1;" vertex="1" parent="1">
          <mxGeometry x="1180" y="500" width="120" height="60" as="geometry" />
        </mxCell>
        <mxCell id="QgCSMlxWgUbur18fvCFO-39" value="&lt;u&gt;id&lt;/u&gt;" style="ellipse;whiteSpace=wrap;html=1;" vertex="1" parent="1">
          <mxGeometry x="1044" y="380" width="120" height="80" as="geometry" />
        </mxCell>
        <mxCell id="QgCSMlxWgUbur18fvCFO-40" value="description" style="ellipse;whiteSpace=wrap;html=1;" vertex="1" parent="1">
          <mxGeometry x="1200" y="360" width="120" height="80" as="geometry" />
        </mxCell>
        <mxCell id="QgCSMlxWgUbur18fvCFO-41" value="uri" style="ellipse;whiteSpace=wrap;html=1;" vertex="1" parent="1">
          <mxGeometry x="1360" y="430" width="120" height="80" as="geometry" />
        </mxCell>
        <mxCell id="QgCSMlxWgUbur18fvCFO-42" value="archive_type" style="ellipse;whiteSpace=wrap;html=1;" vertex="1" parent="1">
          <mxGeometry x="1330" y="530" width="120" height="80" as="geometry" />
        </mxCell>
        <mxCell id="QgCSMlxWgUbur18fvCFO-44" value="updated_at" style="ellipse;whiteSpace=wrap;html=1;" vertex="1" parent="1">
          <mxGeometry x="1000" y="490" width="120" height="80" as="geometry" />
        </mxCell>
        <mxCell id="QgCSMlxWgUbur18fvCFO-45" value="created_at" style="ellipse;whiteSpace=wrap;html=1;" vertex="1" parent="1">
          <mxGeometry x="1070" y="605" width="120" height="80" as="geometry" />
        </mxCell>
        <mxCell id="QgCSMlxWgUbur18fvCFO-46" style="rounded=0;orthogonalLoop=1;jettySize=auto;html=1;exitX=0.5;exitY=1;exitDx=0;exitDy=0;entryX=0.996;entryY=0.442;entryDx=0;entryDy=0;entryPerimeter=0;endArrow=none;endFill=0;" edge="1" parent="1" source="QgCSMlxWgUbur18fvCFO-38" target="QgCSMlxWgUbur18fvCFO-45">
          <mxGeometry relative="1" as="geometry" />
        </mxCell>
        <mxCell id="QgCSMlxWgUbur18fvCFO-47" style="rounded=0;orthogonalLoop=1;jettySize=auto;html=1;entryX=1;entryY=1;entryDx=0;entryDy=0;endArrow=none;endFill=0;" edge="1" parent="1" source="QgCSMlxWgUbur18fvCFO-52" target="QgCSMlxWgUbur18fvCFO-53">
          <mxGeometry relative="1" as="geometry" />
        </mxCell>
        <mxCell id="QgCSMlxWgUbur18fvCFO-48" style="rounded=0;orthogonalLoop=1;jettySize=auto;html=1;exitX=0.5;exitY=0;exitDx=0;exitDy=0;entryX=0.5;entryY=1;entryDx=0;entryDy=0;endArrow=none;endFill=0;" edge="1" parent="1" source="QgCSMlxWgUbur18fvCFO-52" target="QgCSMlxWgUbur18fvCFO-54">
          <mxGeometry relative="1" as="geometry" />
        </mxCell>
        <mxCell id="QgCSMlxWgUbur18fvCFO-49" style="rounded=0;orthogonalLoop=1;jettySize=auto;html=1;exitX=1;exitY=0;exitDx=0;exitDy=0;entryX=0;entryY=0.5;entryDx=0;entryDy=0;endArrow=none;endFill=0;" edge="1" parent="1" source="QgCSMlxWgUbur18fvCFO-52" target="QgCSMlxWgUbur18fvCFO-55">
          <mxGeometry relative="1" as="geometry" />
        </mxCell>
        <mxCell id="QgCSMlxWgUbur18fvCFO-50" style="rounded=0;orthogonalLoop=1;jettySize=auto;html=1;exitX=1;exitY=0.5;exitDx=0;exitDy=0;endArrow=none;endFill=0;" edge="1" parent="1" source="QgCSMlxWgUbur18fvCFO-52" target="QgCSMlxWgUbur18fvCFO-56">
          <mxGeometry relative="1" as="geometry" />
        </mxCell>
        <mxCell id="QgCSMlxWgUbur18fvCFO-51" style="rounded=0;orthogonalLoop=1;jettySize=auto;html=1;exitX=0;exitY=1;exitDx=0;exitDy=0;entryX=1;entryY=1;entryDx=0;entryDy=0;endArrow=none;endFill=0;" edge="1" parent="1" source="QgCSMlxWgUbur18fvCFO-52" target="QgCSMlxWgUbur18fvCFO-57">
          <mxGeometry relative="1" as="geometry" />
        </mxCell>
        <mxCell id="QgCSMlxWgUbur18fvCFO-52" value="identities_team_compiler_lkps" style="rounded=0;whiteSpace=wrap;html=1;" vertex="1" parent="1">
          <mxGeometry x="1770" y="505" width="190" height="60" as="geometry" />
        </mxCell>
        <mxCell id="QgCSMlxWgUbur18fvCFO-53" value="&lt;u&gt;id&lt;/u&gt;" style="ellipse;whiteSpace=wrap;html=1;" vertex="1" parent="1">
          <mxGeometry x="1634" y="385" width="120" height="80" as="geometry" />
        </mxCell>
        <mxCell id="QgCSMlxWgUbur18fvCFO-54" value="description" style="ellipse;whiteSpace=wrap;html=1;" vertex="1" parent="1">
          <mxGeometry x="1790" y="365" width="120" height="80" as="geometry" />
        </mxCell>
        <mxCell id="QgCSMlxWgUbur18fvCFO-55" value="uri" style="ellipse;whiteSpace=wrap;html=1;" vertex="1" parent="1">
          <mxGeometry x="1990" y="400" width="120" height="80" as="geometry" />
        </mxCell>
        <mxCell id="QgCSMlxWgUbur18fvCFO-56" value="archive_type" style="ellipse;whiteSpace=wrap;html=1;" vertex="1" parent="1">
          <mxGeometry x="1980" y="575" width="120" height="80" as="geometry" />
        </mxCell>
        <mxCell id="QgCSMlxWgUbur18fvCFO-57" value="updated_at" style="ellipse;whiteSpace=wrap;html=1;" vertex="1" parent="1">
          <mxGeometry x="1590" y="495" width="120" height="80" as="geometry" />
        </mxCell>
        <mxCell id="QgCSMlxWgUbur18fvCFO-58" value="created_at" style="ellipse;whiteSpace=wrap;html=1;" vertex="1" parent="1">
          <mxGeometry x="1660" y="610" width="120" height="80" as="geometry" />
        </mxCell>
        <mxCell id="QgCSMlxWgUbur18fvCFO-59" style="rounded=0;orthogonalLoop=1;jettySize=auto;html=1;exitX=0.5;exitY=1;exitDx=0;exitDy=0;entryX=0.996;entryY=0.442;entryDx=0;entryDy=0;entryPerimeter=0;endArrow=none;endFill=0;" edge="1" parent="1" source="QgCSMlxWgUbur18fvCFO-52" target="QgCSMlxWgUbur18fvCFO-58">
          <mxGeometry relative="1" as="geometry" />
        </mxCell>
        <mxCell id="QgCSMlxWgUbur18fvCFO-60" style="rounded=0;orthogonalLoop=1;jettySize=auto;html=1;entryX=1;entryY=1;entryDx=0;entryDy=0;endArrow=none;endFill=0;" edge="1" parent="1" source="QgCSMlxWgUbur18fvCFO-65" target="QgCSMlxWgUbur18fvCFO-66">
          <mxGeometry relative="1" as="geometry" />
        </mxCell>
        <mxCell id="QgCSMlxWgUbur18fvCFO-61" style="rounded=0;orthogonalLoop=1;jettySize=auto;html=1;exitX=0.5;exitY=0;exitDx=0;exitDy=0;entryX=0.5;entryY=1;entryDx=0;entryDy=0;endArrow=none;endFill=0;" edge="1" parent="1" source="QgCSMlxWgUbur18fvCFO-65" target="QgCSMlxWgUbur18fvCFO-67">
          <mxGeometry relative="1" as="geometry" />
        </mxCell>
        <mxCell id="QgCSMlxWgUbur18fvCFO-62" style="rounded=0;orthogonalLoop=1;jettySize=auto;html=1;exitX=1;exitY=0;exitDx=0;exitDy=0;entryX=0;entryY=0.5;entryDx=0;entryDy=0;endArrow=none;endFill=0;" edge="1" parent="1" source="QgCSMlxWgUbur18fvCFO-65" target="QgCSMlxWgUbur18fvCFO-68">
          <mxGeometry relative="1" as="geometry" />
        </mxCell>
        <mxCell id="QgCSMlxWgUbur18fvCFO-63" style="rounded=0;orthogonalLoop=1;jettySize=auto;html=1;exitX=1;exitY=0.5;exitDx=0;exitDy=0;endArrow=none;endFill=0;" edge="1" parent="1" source="QgCSMlxWgUbur18fvCFO-65" target="QgCSMlxWgUbur18fvCFO-69">
          <mxGeometry relative="1" as="geometry" />
        </mxCell>
        <mxCell id="QgCSMlxWgUbur18fvCFO-64" style="rounded=0;orthogonalLoop=1;jettySize=auto;html=1;exitX=0;exitY=1;exitDx=0;exitDy=0;entryX=1;entryY=1;entryDx=0;entryDy=0;endArrow=none;endFill=0;" edge="1" parent="1" source="QgCSMlxWgUbur18fvCFO-65" target="QgCSMlxWgUbur18fvCFO-70">
          <mxGeometry relative="1" as="geometry" />
        </mxCell>
        <mxCell id="QgCSMlxWgUbur18fvCFO-65" value="identity_team_compiler_lkps" style="rounded=0;whiteSpace=wrap;html=1;" vertex="1" parent="1">
          <mxGeometry x="2370" y="500" width="190" height="60" as="geometry" />
        </mxCell>
        <mxCell id="QgCSMlxWgUbur18fvCFO-66" value="&lt;u&gt;id&lt;/u&gt;" style="ellipse;whiteSpace=wrap;html=1;" vertex="1" parent="1">
          <mxGeometry x="2234" y="380" width="120" height="80" as="geometry" />
        </mxCell>
        <mxCell id="QgCSMlxWgUbur18fvCFO-67" value="description" style="ellipse;whiteSpace=wrap;html=1;" vertex="1" parent="1">
          <mxGeometry x="2390" y="360" width="120" height="80" as="geometry" />
        </mxCell>
        <mxCell id="QgCSMlxWgUbur18fvCFO-68" value="uri" style="ellipse;whiteSpace=wrap;html=1;" vertex="1" parent="1">
          <mxGeometry x="2590" y="395" width="120" height="80" as="geometry" />
        </mxCell>
        <mxCell id="QgCSMlxWgUbur18fvCFO-69" value="archive_type" style="ellipse;whiteSpace=wrap;html=1;" vertex="1" parent="1">
          <mxGeometry x="2580" y="570" width="120" height="80" as="geometry" />
        </mxCell>
        <mxCell id="QgCSMlxWgUbur18fvCFO-70" value="updated_at" style="ellipse;whiteSpace=wrap;html=1;" vertex="1" parent="1">
          <mxGeometry x="2190" y="490" width="120" height="80" as="geometry" />
        </mxCell>
        <mxCell id="QgCSMlxWgUbur18fvCFO-71" value="created_at" style="ellipse;whiteSpace=wrap;html=1;" vertex="1" parent="1">
          <mxGeometry x="2260" y="605" width="120" height="80" as="geometry" />
        </mxCell>
        <mxCell id="QgCSMlxWgUbur18fvCFO-72" style="rounded=0;orthogonalLoop=1;jettySize=auto;html=1;exitX=0.5;exitY=1;exitDx=0;exitDy=0;entryX=0.996;entryY=0.442;entryDx=0;entryDy=0;entryPerimeter=0;endArrow=none;endFill=0;" edge="1" parent="1" source="QgCSMlxWgUbur18fvCFO-65" target="QgCSMlxWgUbur18fvCFO-71">
          <mxGeometry relative="1" as="geometry" />
        </mxCell>
        <mxCell id="QgCSMlxWgUbur18fvCFO-86" style="rounded=0;orthogonalLoop=1;jettySize=auto;html=1;entryX=1;entryY=1;entryDx=0;entryDy=0;endArrow=none;endFill=0;" edge="1" parent="1" source="QgCSMlxWgUbur18fvCFO-91" target="QgCSMlxWgUbur18fvCFO-92">
          <mxGeometry relative="1" as="geometry" />
        </mxCell>
        <mxCell id="QgCSMlxWgUbur18fvCFO-87" style="rounded=0;orthogonalLoop=1;jettySize=auto;html=1;exitX=0.5;exitY=0;exitDx=0;exitDy=0;entryX=0.5;entryY=1;entryDx=0;entryDy=0;endArrow=none;endFill=0;" edge="1" parent="1" source="QgCSMlxWgUbur18fvCFO-91" target="QgCSMlxWgUbur18fvCFO-93">
          <mxGeometry relative="1" as="geometry" />
        </mxCell>
        <mxCell id="QgCSMlxWgUbur18fvCFO-88" style="rounded=0;orthogonalLoop=1;jettySize=auto;html=1;exitX=1;exitY=0;exitDx=0;exitDy=0;entryX=0;entryY=0.5;entryDx=0;entryDy=0;endArrow=none;endFill=0;" edge="1" parent="1" source="QgCSMlxWgUbur18fvCFO-91" target="QgCSMlxWgUbur18fvCFO-94">
          <mxGeometry relative="1" as="geometry" />
        </mxCell>
        <mxCell id="QgCSMlxWgUbur18fvCFO-89" style="rounded=0;orthogonalLoop=1;jettySize=auto;html=1;exitX=1;exitY=0.5;exitDx=0;exitDy=0;endArrow=none;endFill=0;" edge="1" parent="1" source="QgCSMlxWgUbur18fvCFO-91" target="QgCSMlxWgUbur18fvCFO-95">
          <mxGeometry relative="1" as="geometry" />
        </mxCell>
        <mxCell id="QgCSMlxWgUbur18fvCFO-90" style="rounded=0;orthogonalLoop=1;jettySize=auto;html=1;exitX=0;exitY=1;exitDx=0;exitDy=0;entryX=1;entryY=1;entryDx=0;entryDy=0;endArrow=none;endFill=0;" edge="1" parent="1" source="QgCSMlxWgUbur18fvCFO-91" target="QgCSMlxWgUbur18fvCFO-96">
          <mxGeometry relative="1" as="geometry" />
        </mxCell>
        <mxCell id="QgCSMlxWgUbur18fvCFO-91" value="points_lkps" style="rounded=0;whiteSpace=wrap;html=1;" vertex="1" parent="1">
          <mxGeometry x="2950" y="520" width="190" height="60" as="geometry" />
        </mxCell>
        <mxCell id="QgCSMlxWgUbur18fvCFO-92" value="&lt;u&gt;id&lt;/u&gt;" style="ellipse;whiteSpace=wrap;html=1;" vertex="1" parent="1">
          <mxGeometry x="2814" y="400" width="120" height="80" as="geometry" />
        </mxCell>
        <mxCell id="QgCSMlxWgUbur18fvCFO-93" value="description" style="ellipse;whiteSpace=wrap;html=1;" vertex="1" parent="1">
          <mxGeometry x="2970" y="380" width="120" height="80" as="geometry" />
        </mxCell>
        <mxCell id="QgCSMlxWgUbur18fvCFO-94" value="uri" style="ellipse;whiteSpace=wrap;html=1;" vertex="1" parent="1">
          <mxGeometry x="3170" y="415" width="120" height="80" as="geometry" />
        </mxCell>
        <mxCell id="QgCSMlxWgUbur18fvCFO-95" value="archive_type" style="ellipse;whiteSpace=wrap;html=1;" vertex="1" parent="1">
          <mxGeometry x="3160" y="590" width="120" height="80" as="geometry" />
        </mxCell>
        <mxCell id="QgCSMlxWgUbur18fvCFO-96" value="updated_at" style="ellipse;whiteSpace=wrap;html=1;" vertex="1" parent="1">
          <mxGeometry x="2770" y="510" width="120" height="80" as="geometry" />
        </mxCell>
        <mxCell id="QgCSMlxWgUbur18fvCFO-97" value="created_at" style="ellipse;whiteSpace=wrap;html=1;" vertex="1" parent="1">
          <mxGeometry x="2840" y="625" width="120" height="80" as="geometry" />
        </mxCell>
        <mxCell id="QgCSMlxWgUbur18fvCFO-98" style="rounded=0;orthogonalLoop=1;jettySize=auto;html=1;exitX=0.5;exitY=1;exitDx=0;exitDy=0;entryX=0.996;entryY=0.442;entryDx=0;entryDy=0;entryPerimeter=0;endArrow=none;endFill=0;" edge="1" parent="1" source="QgCSMlxWgUbur18fvCFO-91" target="QgCSMlxWgUbur18fvCFO-97">
          <mxGeometry relative="1" as="geometry" />
        </mxCell>
        <mxCell id="QgCSMlxWgUbur18fvCFO-114" value="&lt;font style=&quot;font-size: 30px;&quot;&gt;Dokumen jurusan&lt;/font&gt;" style="text;html=1;strokeColor=none;fillColor=none;align=center;verticalAlign=middle;whiteSpace=wrap;rounded=0;" vertex="1" parent="1">
          <mxGeometry x="310" y="270" width="390" height="30" as="geometry" />
        </mxCell>
        <mxCell id="QgCSMlxWgUbur18fvCFO-132" value="&lt;font style=&quot;font-size: 30px;&quot;&gt;Visitors&lt;/font&gt;" style="text;html=1;strokeColor=none;fillColor=none;align=center;verticalAlign=middle;whiteSpace=wrap;rounded=0;" vertex="1" parent="1">
          <mxGeometry x="294" y="840" width="390" height="30" as="geometry" />
        </mxCell>
        <mxCell id="QgCSMlxWgUbur18fvCFO-136" value="&lt;span style=&quot;font-size: 30px;&quot;&gt;Pendukung akreditasi / LKPS&lt;/span&gt;" style="text;html=1;strokeColor=none;fillColor=none;align=center;verticalAlign=middle;whiteSpace=wrap;rounded=0;" vertex="1" parent="1">
          <mxGeometry x="1440" y="250" width="470" height="30" as="geometry" />
        </mxCell>
        <mxCell id="QgCSMlxWgUbur18fvCFO-138" value="" style="rounded=0;whiteSpace=wrap;html=1;" vertex="1" parent="1">
          <mxGeometry x="950" y="950" width="2410" height="1960" as="geometry" />
        </mxCell>
        <mxCell id="QgCSMlxWgUbur18fvCFO-139" style="rounded=0;orthogonalLoop=1;jettySize=auto;html=1;entryX=1;entryY=1;entryDx=0;entryDy=0;endArrow=none;endFill=0;" edge="1" parent="1" source="QgCSMlxWgUbur18fvCFO-144" target="QgCSMlxWgUbur18fvCFO-145">
          <mxGeometry relative="1" as="geometry" />
        </mxCell>
        <mxCell id="QgCSMlxWgUbur18fvCFO-140" style="rounded=0;orthogonalLoop=1;jettySize=auto;html=1;exitX=0.5;exitY=0;exitDx=0;exitDy=0;entryX=0.5;entryY=1;entryDx=0;entryDy=0;endArrow=none;endFill=0;" edge="1" parent="1" source="QgCSMlxWgUbur18fvCFO-144" target="QgCSMlxWgUbur18fvCFO-146">
          <mxGeometry relative="1" as="geometry" />
        </mxCell>
        <mxCell id="QgCSMlxWgUbur18fvCFO-141" style="rounded=0;orthogonalLoop=1;jettySize=auto;html=1;exitX=1;exitY=0;exitDx=0;exitDy=0;entryX=0;entryY=0.5;entryDx=0;entryDy=0;endArrow=none;endFill=0;" edge="1" parent="1" source="QgCSMlxWgUbur18fvCFO-144" target="QgCSMlxWgUbur18fvCFO-147">
          <mxGeometry relative="1" as="geometry" />
        </mxCell>
        <mxCell id="QgCSMlxWgUbur18fvCFO-142" style="rounded=0;orthogonalLoop=1;jettySize=auto;html=1;exitX=1;exitY=0.5;exitDx=0;exitDy=0;endArrow=none;endFill=0;" edge="1" parent="1" source="QgCSMlxWgUbur18fvCFO-144" target="QgCSMlxWgUbur18fvCFO-148">
          <mxGeometry relative="1" as="geometry" />
        </mxCell>
        <mxCell id="QgCSMlxWgUbur18fvCFO-143" style="rounded=0;orthogonalLoop=1;jettySize=auto;html=1;exitX=0;exitY=1;exitDx=0;exitDy=0;entryX=1;entryY=1;entryDx=0;entryDy=0;endArrow=none;endFill=0;" edge="1" parent="1" source="QgCSMlxWgUbur18fvCFO-144" target="QgCSMlxWgUbur18fvCFO-149">
          <mxGeometry relative="1" as="geometry" />
        </mxCell>
        <mxCell id="QgCSMlxWgUbur18fvCFO-144" value="proposer_identities" style="rounded=0;whiteSpace=wrap;html=1;" vertex="1" parent="1">
          <mxGeometry x="1180" y="1220" width="120" height="60" as="geometry" />
        </mxCell>
        <mxCell id="QgCSMlxWgUbur18fvCFO-145" value="&lt;u&gt;id&lt;/u&gt;" style="ellipse;whiteSpace=wrap;html=1;" vertex="1" parent="1">
          <mxGeometry x="1044" y="1100" width="120" height="80" as="geometry" />
        </mxCell>
        <mxCell id="QgCSMlxWgUbur18fvCFO-146" value="description" style="ellipse;whiteSpace=wrap;html=1;" vertex="1" parent="1">
          <mxGeometry x="1200" y="1080" width="120" height="80" as="geometry" />
        </mxCell>
        <mxCell id="QgCSMlxWgUbur18fvCFO-147" value="uri" style="ellipse;whiteSpace=wrap;html=1;" vertex="1" parent="1">
          <mxGeometry x="1360" y="1150" width="120" height="80" as="geometry" />
        </mxCell>
        <mxCell id="QgCSMlxWgUbur18fvCFO-148" value="archive_type" style="ellipse;whiteSpace=wrap;html=1;" vertex="1" parent="1">
          <mxGeometry x="1330" y="1250" width="120" height="80" as="geometry" />
        </mxCell>
        <mxCell id="QgCSMlxWgUbur18fvCFO-149" value="updated_at" style="ellipse;whiteSpace=wrap;html=1;" vertex="1" parent="1">
          <mxGeometry x="1000" y="1210" width="120" height="80" as="geometry" />
        </mxCell>
        <mxCell id="QgCSMlxWgUbur18fvCFO-150" value="created_at" style="ellipse;whiteSpace=wrap;html=1;" vertex="1" parent="1">
          <mxGeometry x="1070" y="1325" width="120" height="80" as="geometry" />
        </mxCell>
        <mxCell id="QgCSMlxWgUbur18fvCFO-151" style="rounded=0;orthogonalLoop=1;jettySize=auto;html=1;exitX=0.5;exitY=1;exitDx=0;exitDy=0;entryX=0.996;entryY=0.442;entryDx=0;entryDy=0;entryPerimeter=0;endArrow=none;endFill=0;" edge="1" parent="1" source="QgCSMlxWgUbur18fvCFO-144" target="QgCSMlxWgUbur18fvCFO-150">
          <mxGeometry relative="1" as="geometry" />
        </mxCell>
        <mxCell id="QgCSMlxWgUbur18fvCFO-192" value="&lt;span style=&quot;font-size: 30px;&quot;&gt;Pendukung akreditasi / LED&lt;/span&gt;" style="text;html=1;strokeColor=none;fillColor=none;align=center;verticalAlign=middle;whiteSpace=wrap;rounded=0;" vertex="1" parent="1">
          <mxGeometry x="1520" y="990" width="470" height="30" as="geometry" />
        </mxCell>
        <mxCell id="QgCSMlxWgUbur18fvCFO-193" value="" style="rounded=0;whiteSpace=wrap;html=1;" vertex="1" parent="1">
          <mxGeometry x="1530" y="1150" width="1726" height="660" as="geometry" />
        </mxCell>
        <mxCell id="QgCSMlxWgUbur18fvCFO-194" value="&lt;span style=&quot;font-size: 30px;&quot;&gt;Pendukung akreditasi / LED / BAB 1 Pendahuluan&lt;/span&gt;" style="text;html=1;strokeColor=none;fillColor=none;align=center;verticalAlign=middle;whiteSpace=wrap;rounded=0;" vertex="1" parent="1">
          <mxGeometry x="1675" y="1165" width="750" height="30" as="geometry" />
        </mxCell>
        <mxCell id="QgCSMlxWgUbur18fvCFO-152" style="rounded=0;orthogonalLoop=1;jettySize=auto;html=1;entryX=1;entryY=1;entryDx=0;entryDy=0;endArrow=none;endFill=0;" edge="1" parent="1" source="QgCSMlxWgUbur18fvCFO-157" target="QgCSMlxWgUbur18fvCFO-158">
          <mxGeometry relative="1" as="geometry" />
        </mxCell>
        <mxCell id="QgCSMlxWgUbur18fvCFO-153" style="rounded=0;orthogonalLoop=1;jettySize=auto;html=1;exitX=0.5;exitY=0;exitDx=0;exitDy=0;entryX=0.5;entryY=1;entryDx=0;entryDy=0;endArrow=none;endFill=0;" edge="1" parent="1" source="QgCSMlxWgUbur18fvCFO-157" target="QgCSMlxWgUbur18fvCFO-159">
          <mxGeometry relative="1" as="geometry" />
        </mxCell>
        <mxCell id="QgCSMlxWgUbur18fvCFO-154" style="rounded=0;orthogonalLoop=1;jettySize=auto;html=1;exitX=1;exitY=0;exitDx=0;exitDy=0;entryX=0;entryY=0.5;entryDx=0;entryDy=0;endArrow=none;endFill=0;" edge="1" parent="1" source="QgCSMlxWgUbur18fvCFO-157" target="QgCSMlxWgUbur18fvCFO-160">
          <mxGeometry relative="1" as="geometry" />
        </mxCell>
        <mxCell id="QgCSMlxWgUbur18fvCFO-155" style="rounded=0;orthogonalLoop=1;jettySize=auto;html=1;exitX=1;exitY=0.5;exitDx=0;exitDy=0;endArrow=none;endFill=0;" edge="1" parent="1" source="QgCSMlxWgUbur18fvCFO-157" target="QgCSMlxWgUbur18fvCFO-161">
          <mxGeometry relative="1" as="geometry" />
        </mxCell>
        <mxCell id="QgCSMlxWgUbur18fvCFO-156" style="rounded=0;orthogonalLoop=1;jettySize=auto;html=1;exitX=0;exitY=1;exitDx=0;exitDy=0;entryX=1;entryY=1;entryDx=0;entryDy=0;endArrow=none;endFill=0;" edge="1" parent="1" source="QgCSMlxWgUbur18fvCFO-157" target="QgCSMlxWgUbur18fvCFO-162">
          <mxGeometry relative="1" as="geometry" />
        </mxCell>
        <mxCell id="QgCSMlxWgUbur18fvCFO-157" value="compiler_bases" style="rounded=0;whiteSpace=wrap;html=1;" vertex="1" parent="1">
          <mxGeometry x="1710" y="1380" width="190" height="60" as="geometry" />
        </mxCell>
        <mxCell id="QgCSMlxWgUbur18fvCFO-158" value="&lt;u&gt;id&lt;/u&gt;" style="ellipse;whiteSpace=wrap;html=1;" vertex="1" parent="1">
          <mxGeometry x="1574" y="1260" width="120" height="80" as="geometry" />
        </mxCell>
        <mxCell id="QgCSMlxWgUbur18fvCFO-159" value="description" style="ellipse;whiteSpace=wrap;html=1;" vertex="1" parent="1">
          <mxGeometry x="1730" y="1240" width="120" height="80" as="geometry" />
        </mxCell>
        <mxCell id="QgCSMlxWgUbur18fvCFO-160" value="uri" style="ellipse;whiteSpace=wrap;html=1;" vertex="1" parent="1">
          <mxGeometry x="1930" y="1275" width="120" height="80" as="geometry" />
        </mxCell>
        <mxCell id="QgCSMlxWgUbur18fvCFO-161" value="archive_type" style="ellipse;whiteSpace=wrap;html=1;" vertex="1" parent="1">
          <mxGeometry x="1920" y="1450" width="120" height="80" as="geometry" />
        </mxCell>
        <mxCell id="QgCSMlxWgUbur18fvCFO-162" value="updated_at" style="ellipse;whiteSpace=wrap;html=1;" vertex="1" parent="1">
          <mxGeometry x="1530" y="1370" width="120" height="80" as="geometry" />
        </mxCell>
        <mxCell id="QgCSMlxWgUbur18fvCFO-163" value="created_at" style="ellipse;whiteSpace=wrap;html=1;" vertex="1" parent="1">
          <mxGeometry x="1600" y="1485" width="120" height="80" as="geometry" />
        </mxCell>
        <mxCell id="QgCSMlxWgUbur18fvCFO-164" style="rounded=0;orthogonalLoop=1;jettySize=auto;html=1;exitX=0.5;exitY=1;exitDx=0;exitDy=0;entryX=0.996;entryY=0.442;entryDx=0;entryDy=0;entryPerimeter=0;endArrow=none;endFill=0;" edge="1" parent="1" source="QgCSMlxWgUbur18fvCFO-157" target="QgCSMlxWgUbur18fvCFO-163">
          <mxGeometry relative="1" as="geometry" />
        </mxCell>
        <mxCell id="QgCSMlxWgUbur18fvCFO-165" style="rounded=0;orthogonalLoop=1;jettySize=auto;html=1;entryX=1;entryY=1;entryDx=0;entryDy=0;endArrow=none;endFill=0;" edge="1" parent="1" source="QgCSMlxWgUbur18fvCFO-170" target="QgCSMlxWgUbur18fvCFO-171">
          <mxGeometry relative="1" as="geometry" />
        </mxCell>
        <mxCell id="QgCSMlxWgUbur18fvCFO-166" style="rounded=0;orthogonalLoop=1;jettySize=auto;html=1;exitX=0.5;exitY=0;exitDx=0;exitDy=0;entryX=0.5;entryY=1;entryDx=0;entryDy=0;endArrow=none;endFill=0;" edge="1" parent="1" source="QgCSMlxWgUbur18fvCFO-170" target="QgCSMlxWgUbur18fvCFO-172">
          <mxGeometry relative="1" as="geometry" />
        </mxCell>
        <mxCell id="QgCSMlxWgUbur18fvCFO-167" style="rounded=0;orthogonalLoop=1;jettySize=auto;html=1;exitX=1;exitY=0;exitDx=0;exitDy=0;entryX=0;entryY=0.5;entryDx=0;entryDy=0;endArrow=none;endFill=0;" edge="1" parent="1" source="QgCSMlxWgUbur18fvCFO-170" target="QgCSMlxWgUbur18fvCFO-173">
          <mxGeometry relative="1" as="geometry" />
        </mxCell>
        <mxCell id="QgCSMlxWgUbur18fvCFO-168" style="rounded=0;orthogonalLoop=1;jettySize=auto;html=1;exitX=1;exitY=0.5;exitDx=0;exitDy=0;endArrow=none;endFill=0;" edge="1" parent="1" source="QgCSMlxWgUbur18fvCFO-170" target="QgCSMlxWgUbur18fvCFO-174">
          <mxGeometry relative="1" as="geometry" />
        </mxCell>
        <mxCell id="QgCSMlxWgUbur18fvCFO-169" style="rounded=0;orthogonalLoop=1;jettySize=auto;html=1;exitX=0;exitY=1;exitDx=0;exitDy=0;entryX=1;entryY=1;entryDx=0;entryDy=0;endArrow=none;endFill=0;" edge="1" parent="1" source="QgCSMlxWgUbur18fvCFO-170" target="QgCSMlxWgUbur18fvCFO-175">
          <mxGeometry relative="1" as="geometry" />
        </mxCell>
        <mxCell id="QgCSMlxWgUbur18fvCFO-170" value="teams_composing_and_responsibility" style="rounded=0;whiteSpace=wrap;html=1;" vertex="1" parent="1">
          <mxGeometry x="2310" y="1375" width="220" height="60" as="geometry" />
        </mxCell>
        <mxCell id="QgCSMlxWgUbur18fvCFO-171" value="&lt;u&gt;id&lt;/u&gt;" style="ellipse;whiteSpace=wrap;html=1;" vertex="1" parent="1">
          <mxGeometry x="2174" y="1255" width="120" height="80" as="geometry" />
        </mxCell>
        <mxCell id="QgCSMlxWgUbur18fvCFO-172" value="description" style="ellipse;whiteSpace=wrap;html=1;" vertex="1" parent="1">
          <mxGeometry x="2330" y="1235" width="120" height="80" as="geometry" />
        </mxCell>
        <mxCell id="QgCSMlxWgUbur18fvCFO-173" value="uri" style="ellipse;whiteSpace=wrap;html=1;" vertex="1" parent="1">
          <mxGeometry x="2530" y="1270" width="120" height="80" as="geometry" />
        </mxCell>
        <mxCell id="QgCSMlxWgUbur18fvCFO-174" value="archive_type" style="ellipse;whiteSpace=wrap;html=1;" vertex="1" parent="1">
          <mxGeometry x="2520" y="1445" width="120" height="80" as="geometry" />
        </mxCell>
        <mxCell id="QgCSMlxWgUbur18fvCFO-175" value="updated_at" style="ellipse;whiteSpace=wrap;html=1;" vertex="1" parent="1">
          <mxGeometry x="2130" y="1365" width="120" height="80" as="geometry" />
        </mxCell>
        <mxCell id="QgCSMlxWgUbur18fvCFO-176" value="created_at" style="ellipse;whiteSpace=wrap;html=1;" vertex="1" parent="1">
          <mxGeometry x="2200" y="1480" width="120" height="80" as="geometry" />
        </mxCell>
        <mxCell id="QgCSMlxWgUbur18fvCFO-177" style="rounded=0;orthogonalLoop=1;jettySize=auto;html=1;exitX=0.5;exitY=1;exitDx=0;exitDy=0;entryX=0.996;entryY=0.442;entryDx=0;entryDy=0;entryPerimeter=0;endArrow=none;endFill=0;" edge="1" parent="1" source="QgCSMlxWgUbur18fvCFO-170" target="QgCSMlxWgUbur18fvCFO-176">
          <mxGeometry relative="1" as="geometry" />
        </mxCell>
        <mxCell id="QgCSMlxWgUbur18fvCFO-178" style="rounded=0;orthogonalLoop=1;jettySize=auto;html=1;entryX=1;entryY=1;entryDx=0;entryDy=0;endArrow=none;endFill=0;" edge="1" parent="1" source="QgCSMlxWgUbur18fvCFO-183" target="QgCSMlxWgUbur18fvCFO-184">
          <mxGeometry relative="1" as="geometry" />
        </mxCell>
        <mxCell id="QgCSMlxWgUbur18fvCFO-179" style="rounded=0;orthogonalLoop=1;jettySize=auto;html=1;exitX=0.5;exitY=0;exitDx=0;exitDy=0;entryX=0.5;entryY=1;entryDx=0;entryDy=0;endArrow=none;endFill=0;" edge="1" parent="1" source="QgCSMlxWgUbur18fvCFO-183" target="QgCSMlxWgUbur18fvCFO-185">
          <mxGeometry relative="1" as="geometry" />
        </mxCell>
        <mxCell id="QgCSMlxWgUbur18fvCFO-180" style="rounded=0;orthogonalLoop=1;jettySize=auto;html=1;exitX=1;exitY=0;exitDx=0;exitDy=0;entryX=0;entryY=0.5;entryDx=0;entryDy=0;endArrow=none;endFill=0;" edge="1" parent="1" source="QgCSMlxWgUbur18fvCFO-183" target="QgCSMlxWgUbur18fvCFO-186">
          <mxGeometry relative="1" as="geometry" />
        </mxCell>
        <mxCell id="QgCSMlxWgUbur18fvCFO-181" style="rounded=0;orthogonalLoop=1;jettySize=auto;html=1;exitX=1;exitY=0.5;exitDx=0;exitDy=0;endArrow=none;endFill=0;" edge="1" parent="1" source="QgCSMlxWgUbur18fvCFO-183" target="QgCSMlxWgUbur18fvCFO-187">
          <mxGeometry relative="1" as="geometry" />
        </mxCell>
        <mxCell id="QgCSMlxWgUbur18fvCFO-182" style="rounded=0;orthogonalLoop=1;jettySize=auto;html=1;exitX=0;exitY=1;exitDx=0;exitDy=0;entryX=1;entryY=1;entryDx=0;entryDy=0;endArrow=none;endFill=0;" edge="1" parent="1" source="QgCSMlxWgUbur18fvCFO-183" target="QgCSMlxWgUbur18fvCFO-188">
          <mxGeometry relative="1" as="geometry" />
        </mxCell>
        <mxCell id="QgCSMlxWgUbur18fvCFO-183" value="self-evaluation_teams_work_mechanism" style="rounded=0;whiteSpace=wrap;html=1;" vertex="1" parent="1">
          <mxGeometry x="2874" y="1395" width="260" height="60" as="geometry" />
        </mxCell>
        <mxCell id="QgCSMlxWgUbur18fvCFO-184" value="&lt;u&gt;id&lt;/u&gt;" style="ellipse;whiteSpace=wrap;html=1;" vertex="1" parent="1">
          <mxGeometry x="2754" y="1275" width="120" height="80" as="geometry" />
        </mxCell>
        <mxCell id="QgCSMlxWgUbur18fvCFO-185" value="description" style="ellipse;whiteSpace=wrap;html=1;" vertex="1" parent="1">
          <mxGeometry x="2910" y="1255" width="120" height="80" as="geometry" />
        </mxCell>
        <mxCell id="QgCSMlxWgUbur18fvCFO-186" value="uri" style="ellipse;whiteSpace=wrap;html=1;" vertex="1" parent="1">
          <mxGeometry x="3110" y="1290" width="120" height="80" as="geometry" />
        </mxCell>
        <mxCell id="QgCSMlxWgUbur18fvCFO-187" value="archive_type" style="ellipse;whiteSpace=wrap;html=1;" vertex="1" parent="1">
          <mxGeometry x="3100" y="1465" width="120" height="80" as="geometry" />
        </mxCell>
        <mxCell id="QgCSMlxWgUbur18fvCFO-188" value="updated_at" style="ellipse;whiteSpace=wrap;html=1;" vertex="1" parent="1">
          <mxGeometry x="2710" y="1385" width="120" height="80" as="geometry" />
        </mxCell>
        <mxCell id="QgCSMlxWgUbur18fvCFO-189" value="created_at" style="ellipse;whiteSpace=wrap;html=1;" vertex="1" parent="1">
          <mxGeometry x="2780" y="1500" width="120" height="80" as="geometry" />
        </mxCell>
        <mxCell id="QgCSMlxWgUbur18fvCFO-190" style="rounded=0;orthogonalLoop=1;jettySize=auto;html=1;exitX=0.5;exitY=1;exitDx=0;exitDy=0;entryX=0.996;entryY=0.442;entryDx=0;entryDy=0;entryPerimeter=0;endArrow=none;endFill=0;" edge="1" parent="1" source="QgCSMlxWgUbur18fvCFO-183" target="QgCSMlxWgUbur18fvCFO-189">
          <mxGeometry relative="1" as="geometry" />
        </mxCell>
        <mxCell id="QgCSMlxWgUbur18fvCFO-195" value="" style="rounded=0;whiteSpace=wrap;html=1;" vertex="1" parent="1">
          <mxGeometry x="1169" y="1860" width="2031" height="840" as="geometry" />
        </mxCell>
        <mxCell id="QgCSMlxWgUbur18fvCFO-196" value="&lt;span style=&quot;font-size: 30px;&quot;&gt;Pendukung akreditasi / LED / BAB 2 Laporan Evaluasi&lt;/span&gt;" style="text;html=1;strokeColor=none;fillColor=none;align=center;verticalAlign=middle;whiteSpace=wrap;rounded=0;" vertex="1" parent="1">
          <mxGeometry x="1314" y="1875" width="750" height="30" as="geometry" />
        </mxCell>
        <mxCell id="QgCSMlxWgUbur18fvCFO-197" style="rounded=0;orthogonalLoop=1;jettySize=auto;html=1;entryX=1;entryY=1;entryDx=0;entryDy=0;endArrow=none;endFill=0;" edge="1" parent="1" source="QgCSMlxWgUbur18fvCFO-202" target="QgCSMlxWgUbur18fvCFO-203">
          <mxGeometry relative="1" as="geometry" />
        </mxCell>
        <mxCell id="QgCSMlxWgUbur18fvCFO-198" style="rounded=0;orthogonalLoop=1;jettySize=auto;html=1;exitX=0.5;exitY=0;exitDx=0;exitDy=0;entryX=0.5;entryY=1;entryDx=0;entryDy=0;endArrow=none;endFill=0;" edge="1" parent="1" source="QgCSMlxWgUbur18fvCFO-202" target="QgCSMlxWgUbur18fvCFO-204">
          <mxGeometry relative="1" as="geometry" />
        </mxCell>
        <mxCell id="QgCSMlxWgUbur18fvCFO-199" style="rounded=0;orthogonalLoop=1;jettySize=auto;html=1;exitX=1;exitY=0;exitDx=0;exitDy=0;entryX=0;entryY=0.5;entryDx=0;entryDy=0;endArrow=none;endFill=0;" edge="1" parent="1" source="QgCSMlxWgUbur18fvCFO-202" target="QgCSMlxWgUbur18fvCFO-205">
          <mxGeometry relative="1" as="geometry" />
        </mxCell>
        <mxCell id="QgCSMlxWgUbur18fvCFO-200" style="rounded=0;orthogonalLoop=1;jettySize=auto;html=1;exitX=1;exitY=0.5;exitDx=0;exitDy=0;endArrow=none;endFill=0;" edge="1" parent="1" source="QgCSMlxWgUbur18fvCFO-202" target="QgCSMlxWgUbur18fvCFO-206">
          <mxGeometry relative="1" as="geometry" />
        </mxCell>
        <mxCell id="QgCSMlxWgUbur18fvCFO-201" style="rounded=0;orthogonalLoop=1;jettySize=auto;html=1;exitX=0;exitY=1;exitDx=0;exitDy=0;entryX=1;entryY=1;entryDx=0;entryDy=0;endArrow=none;endFill=0;" edge="1" parent="1" source="QgCSMlxWgUbur18fvCFO-202" target="QgCSMlxWgUbur18fvCFO-207">
          <mxGeometry relative="1" as="geometry" />
        </mxCell>
        <mxCell id="QgCSMlxWgUbur18fvCFO-202" value="external_condition" style="rounded=0;whiteSpace=wrap;html=1;" vertex="1" parent="1">
          <mxGeometry x="1349" y="2090" width="190" height="60" as="geometry" />
        </mxCell>
        <mxCell id="QgCSMlxWgUbur18fvCFO-203" value="&lt;u&gt;id&lt;/u&gt;" style="ellipse;whiteSpace=wrap;html=1;" vertex="1" parent="1">
          <mxGeometry x="1213" y="1970" width="120" height="80" as="geometry" />
        </mxCell>
        <mxCell id="QgCSMlxWgUbur18fvCFO-204" value="description" style="ellipse;whiteSpace=wrap;html=1;" vertex="1" parent="1">
          <mxGeometry x="1369" y="1950" width="120" height="80" as="geometry" />
        </mxCell>
        <mxCell id="QgCSMlxWgUbur18fvCFO-205" value="uri" style="ellipse;whiteSpace=wrap;html=1;" vertex="1" parent="1">
          <mxGeometry x="1569" y="1985" width="120" height="80" as="geometry" />
        </mxCell>
        <mxCell id="QgCSMlxWgUbur18fvCFO-206" value="archive_type" style="ellipse;whiteSpace=wrap;html=1;" vertex="1" parent="1">
          <mxGeometry x="1559" y="2160" width="120" height="80" as="geometry" />
        </mxCell>
        <mxCell id="QgCSMlxWgUbur18fvCFO-207" value="updated_at" style="ellipse;whiteSpace=wrap;html=1;" vertex="1" parent="1">
          <mxGeometry x="1169" y="2080" width="120" height="80" as="geometry" />
        </mxCell>
        <mxCell id="QgCSMlxWgUbur18fvCFO-208" value="created_at" style="ellipse;whiteSpace=wrap;html=1;" vertex="1" parent="1">
          <mxGeometry x="1239" y="2195" width="120" height="80" as="geometry" />
        </mxCell>
        <mxCell id="QgCSMlxWgUbur18fvCFO-209" style="rounded=0;orthogonalLoop=1;jettySize=auto;html=1;exitX=0.5;exitY=1;exitDx=0;exitDy=0;entryX=0.996;entryY=0.442;entryDx=0;entryDy=0;entryPerimeter=0;endArrow=none;endFill=0;" edge="1" parent="1" source="QgCSMlxWgUbur18fvCFO-202" target="QgCSMlxWgUbur18fvCFO-208">
          <mxGeometry relative="1" as="geometry" />
        </mxCell>
        <mxCell id="QgCSMlxWgUbur18fvCFO-210" style="rounded=0;orthogonalLoop=1;jettySize=auto;html=1;entryX=1;entryY=1;entryDx=0;entryDy=0;endArrow=none;endFill=0;" edge="1" parent="1" source="QgCSMlxWgUbur18fvCFO-215" target="QgCSMlxWgUbur18fvCFO-216">
          <mxGeometry relative="1" as="geometry" />
        </mxCell>
        <mxCell id="QgCSMlxWgUbur18fvCFO-211" style="rounded=0;orthogonalLoop=1;jettySize=auto;html=1;exitX=0.5;exitY=0;exitDx=0;exitDy=0;entryX=0.5;entryY=1;entryDx=0;entryDy=0;endArrow=none;endFill=0;" edge="1" parent="1" source="QgCSMlxWgUbur18fvCFO-215" target="QgCSMlxWgUbur18fvCFO-217">
          <mxGeometry relative="1" as="geometry" />
        </mxCell>
        <mxCell id="QgCSMlxWgUbur18fvCFO-212" style="rounded=0;orthogonalLoop=1;jettySize=auto;html=1;exitX=1;exitY=0;exitDx=0;exitDy=0;entryX=0;entryY=0.5;entryDx=0;entryDy=0;endArrow=none;endFill=0;" edge="1" parent="1" source="QgCSMlxWgUbur18fvCFO-215" target="QgCSMlxWgUbur18fvCFO-218">
          <mxGeometry relative="1" as="geometry" />
        </mxCell>
        <mxCell id="QgCSMlxWgUbur18fvCFO-213" style="rounded=0;orthogonalLoop=1;jettySize=auto;html=1;exitX=1;exitY=0.5;exitDx=0;exitDy=0;endArrow=none;endFill=0;" edge="1" parent="1" source="QgCSMlxWgUbur18fvCFO-215" target="QgCSMlxWgUbur18fvCFO-219">
          <mxGeometry relative="1" as="geometry" />
        </mxCell>
        <mxCell id="QgCSMlxWgUbur18fvCFO-214" style="rounded=0;orthogonalLoop=1;jettySize=auto;html=1;exitX=0;exitY=1;exitDx=0;exitDy=0;entryX=1;entryY=1;entryDx=0;entryDy=0;endArrow=none;endFill=0;" edge="1" parent="1" source="QgCSMlxWgUbur18fvCFO-215" target="QgCSMlxWgUbur18fvCFO-220">
          <mxGeometry relative="1" as="geometry" />
        </mxCell>
        <mxCell id="QgCSMlxWgUbur18fvCFO-215" value="profit_unit_manager_studies_program" style="rounded=0;whiteSpace=wrap;html=1;" vertex="1" parent="1">
          <mxGeometry x="1949" y="2085" width="220" height="60" as="geometry" />
        </mxCell>
        <mxCell id="QgCSMlxWgUbur18fvCFO-216" value="&lt;u&gt;id&lt;/u&gt;" style="ellipse;whiteSpace=wrap;html=1;" vertex="1" parent="1">
          <mxGeometry x="1813" y="1965" width="120" height="80" as="geometry" />
        </mxCell>
        <mxCell id="QgCSMlxWgUbur18fvCFO-217" value="description" style="ellipse;whiteSpace=wrap;html=1;" vertex="1" parent="1">
          <mxGeometry x="1969" y="1945" width="120" height="80" as="geometry" />
        </mxCell>
        <mxCell id="QgCSMlxWgUbur18fvCFO-218" value="uri" style="ellipse;whiteSpace=wrap;html=1;" vertex="1" parent="1">
          <mxGeometry x="2169" y="1980" width="120" height="80" as="geometry" />
        </mxCell>
        <mxCell id="QgCSMlxWgUbur18fvCFO-219" value="archive_type" style="ellipse;whiteSpace=wrap;html=1;" vertex="1" parent="1">
          <mxGeometry x="2159" y="2155" width="120" height="80" as="geometry" />
        </mxCell>
        <mxCell id="QgCSMlxWgUbur18fvCFO-220" value="updated_at" style="ellipse;whiteSpace=wrap;html=1;" vertex="1" parent="1">
          <mxGeometry x="1769" y="2075" width="120" height="80" as="geometry" />
        </mxCell>
        <mxCell id="QgCSMlxWgUbur18fvCFO-221" value="created_at" style="ellipse;whiteSpace=wrap;html=1;" vertex="1" parent="1">
          <mxGeometry x="1839" y="2190" width="120" height="80" as="geometry" />
        </mxCell>
        <mxCell id="QgCSMlxWgUbur18fvCFO-222" style="rounded=0;orthogonalLoop=1;jettySize=auto;html=1;exitX=0.5;exitY=1;exitDx=0;exitDy=0;entryX=0.996;entryY=0.442;entryDx=0;entryDy=0;entryPerimeter=0;endArrow=none;endFill=0;" edge="1" parent="1" source="QgCSMlxWgUbur18fvCFO-215" target="QgCSMlxWgUbur18fvCFO-221">
          <mxGeometry relative="1" as="geometry" />
        </mxCell>
        <mxCell id="QgCSMlxWgUbur18fvCFO-223" style="rounded=0;orthogonalLoop=1;jettySize=auto;html=1;entryX=1;entryY=1;entryDx=0;entryDy=0;endArrow=none;endFill=0;" edge="1" parent="1" source="QgCSMlxWgUbur18fvCFO-228" target="QgCSMlxWgUbur18fvCFO-229">
          <mxGeometry relative="1" as="geometry" />
        </mxCell>
        <mxCell id="QgCSMlxWgUbur18fvCFO-224" style="rounded=0;orthogonalLoop=1;jettySize=auto;html=1;exitX=0.5;exitY=0;exitDx=0;exitDy=0;entryX=0.5;entryY=1;entryDx=0;entryDy=0;endArrow=none;endFill=0;" edge="1" parent="1" source="QgCSMlxWgUbur18fvCFO-228" target="QgCSMlxWgUbur18fvCFO-230">
          <mxGeometry relative="1" as="geometry" />
        </mxCell>
        <mxCell id="QgCSMlxWgUbur18fvCFO-225" style="rounded=0;orthogonalLoop=1;jettySize=auto;html=1;exitX=1;exitY=0;exitDx=0;exitDy=0;entryX=0;entryY=0.5;entryDx=0;entryDy=0;endArrow=none;endFill=0;" edge="1" parent="1" source="QgCSMlxWgUbur18fvCFO-228" target="QgCSMlxWgUbur18fvCFO-231">
          <mxGeometry relative="1" as="geometry" />
        </mxCell>
        <mxCell id="QgCSMlxWgUbur18fvCFO-226" style="rounded=0;orthogonalLoop=1;jettySize=auto;html=1;exitX=1;exitY=0.5;exitDx=0;exitDy=0;endArrow=none;endFill=0;" edge="1" parent="1" source="QgCSMlxWgUbur18fvCFO-228" target="QgCSMlxWgUbur18fvCFO-232">
          <mxGeometry relative="1" as="geometry" />
        </mxCell>
        <mxCell id="QgCSMlxWgUbur18fvCFO-227" style="rounded=0;orthogonalLoop=1;jettySize=auto;html=1;exitX=0;exitY=1;exitDx=0;exitDy=0;entryX=1;entryY=1;entryDx=0;entryDy=0;endArrow=none;endFill=0;" edge="1" parent="1" source="QgCSMlxWgUbur18fvCFO-228" target="QgCSMlxWgUbur18fvCFO-233">
          <mxGeometry relative="1" as="geometry" />
        </mxCell>
        <mxCell id="QgCSMlxWgUbur18fvCFO-228" value="criteria_1 [determination, implementation, evaluation, control, improvement ] ... - ... criteria 9" style="rounded=0;whiteSpace=wrap;html=1;" vertex="1" parent="1">
          <mxGeometry x="2513" y="2105" width="547" height="60" as="geometry" />
        </mxCell>
        <mxCell id="QgCSMlxWgUbur18fvCFO-229" value="&lt;u&gt;id&lt;/u&gt;" style="ellipse;whiteSpace=wrap;html=1;" vertex="1" parent="1">
          <mxGeometry x="2539" y="1905" width="120" height="80" as="geometry" />
        </mxCell>
        <mxCell id="QgCSMlxWgUbur18fvCFO-230" value="description" style="ellipse;whiteSpace=wrap;html=1;" vertex="1" parent="1">
          <mxGeometry x="2780" y="1920" width="120" height="80" as="geometry" />
        </mxCell>
        <mxCell id="QgCSMlxWgUbur18fvCFO-231" value="uri" style="ellipse;whiteSpace=wrap;html=1;" vertex="1" parent="1">
          <mxGeometry x="3014" y="1940" width="120" height="80" as="geometry" />
        </mxCell>
        <mxCell id="QgCSMlxWgUbur18fvCFO-232" value="archive_type" style="ellipse;whiteSpace=wrap;html=1;" vertex="1" parent="1">
          <mxGeometry x="2970" y="2240" width="120" height="80" as="geometry" />
        </mxCell>
        <mxCell id="QgCSMlxWgUbur18fvCFO-233" value="updated_at" style="ellipse;whiteSpace=wrap;html=1;" vertex="1" parent="1">
          <mxGeometry x="2380" y="1985" width="120" height="80" as="geometry" />
        </mxCell>
        <mxCell id="QgCSMlxWgUbur18fvCFO-234" value="created_at" style="ellipse;whiteSpace=wrap;html=1;" vertex="1" parent="1">
          <mxGeometry x="2630" y="2250" width="120" height="80" as="geometry" />
        </mxCell>
        <mxCell id="QgCSMlxWgUbur18fvCFO-235" style="rounded=0;orthogonalLoop=1;jettySize=auto;html=1;exitX=0.5;exitY=1;exitDx=0;exitDy=0;entryX=0.996;entryY=0.442;entryDx=0;entryDy=0;entryPerimeter=0;endArrow=none;endFill=0;" edge="1" parent="1" source="QgCSMlxWgUbur18fvCFO-228" target="QgCSMlxWgUbur18fvCFO-234">
          <mxGeometry relative="1" as="geometry" />
        </mxCell>
        <mxCell id="QgCSMlxWgUbur18fvCFO-236" style="rounded=0;orthogonalLoop=1;jettySize=auto;html=1;entryX=1;entryY=1;entryDx=0;entryDy=0;endArrow=none;endFill=0;" edge="1" parent="1" source="QgCSMlxWgUbur18fvCFO-241" target="QgCSMlxWgUbur18fvCFO-242">
          <mxGeometry relative="1" as="geometry" />
        </mxCell>
        <mxCell id="QgCSMlxWgUbur18fvCFO-237" style="rounded=0;orthogonalLoop=1;jettySize=auto;html=1;exitX=0.5;exitY=0;exitDx=0;exitDy=0;entryX=0.5;entryY=1;entryDx=0;entryDy=0;endArrow=none;endFill=0;" edge="1" parent="1" source="QgCSMlxWgUbur18fvCFO-241" target="QgCSMlxWgUbur18fvCFO-243">
          <mxGeometry relative="1" as="geometry" />
        </mxCell>
        <mxCell id="QgCSMlxWgUbur18fvCFO-238" style="rounded=0;orthogonalLoop=1;jettySize=auto;html=1;exitX=1;exitY=0;exitDx=0;exitDy=0;entryX=0;entryY=0.5;entryDx=0;entryDy=0;endArrow=none;endFill=0;" edge="1" parent="1" source="QgCSMlxWgUbur18fvCFO-241" target="QgCSMlxWgUbur18fvCFO-244">
          <mxGeometry relative="1" as="geometry" />
        </mxCell>
        <mxCell id="QgCSMlxWgUbur18fvCFO-239" style="rounded=0;orthogonalLoop=1;jettySize=auto;html=1;exitX=1;exitY=0.5;exitDx=0;exitDy=0;endArrow=none;endFill=0;" edge="1" parent="1" source="QgCSMlxWgUbur18fvCFO-241" target="QgCSMlxWgUbur18fvCFO-245">
          <mxGeometry relative="1" as="geometry" />
        </mxCell>
        <mxCell id="QgCSMlxWgUbur18fvCFO-240" style="rounded=0;orthogonalLoop=1;jettySize=auto;html=1;exitX=0;exitY=1;exitDx=0;exitDy=0;entryX=1;entryY=1;entryDx=0;entryDy=0;endArrow=none;endFill=0;" edge="1" parent="1" source="QgCSMlxWgUbur18fvCFO-241" target="QgCSMlxWgUbur18fvCFO-246">
          <mxGeometry relative="1" as="geometry" />
        </mxCell>
        <mxCell id="QgCSMlxWgUbur18fvCFO-241" value="supplements" style="rounded=0;whiteSpace=wrap;html=1;" vertex="1" parent="1">
          <mxGeometry x="1393" y="2470" width="190" height="60" as="geometry" />
        </mxCell>
        <mxCell id="QgCSMlxWgUbur18fvCFO-242" value="&lt;u&gt;id&lt;/u&gt;" style="ellipse;whiteSpace=wrap;html=1;" vertex="1" parent="1">
          <mxGeometry x="1257" y="2350" width="120" height="80" as="geometry" />
        </mxCell>
        <mxCell id="QgCSMlxWgUbur18fvCFO-243" value="description" style="ellipse;whiteSpace=wrap;html=1;" vertex="1" parent="1">
          <mxGeometry x="1413" y="2330" width="120" height="80" as="geometry" />
        </mxCell>
        <mxCell id="QgCSMlxWgUbur18fvCFO-244" value="uri" style="ellipse;whiteSpace=wrap;html=1;" vertex="1" parent="1">
          <mxGeometry x="1613" y="2365" width="120" height="80" as="geometry" />
        </mxCell>
        <mxCell id="QgCSMlxWgUbur18fvCFO-245" value="archive_type" style="ellipse;whiteSpace=wrap;html=1;" vertex="1" parent="1">
          <mxGeometry x="1603" y="2540" width="120" height="80" as="geometry" />
        </mxCell>
        <mxCell id="QgCSMlxWgUbur18fvCFO-246" value="updated_at" style="ellipse;whiteSpace=wrap;html=1;" vertex="1" parent="1">
          <mxGeometry x="1213" y="2460" width="120" height="80" as="geometry" />
        </mxCell>
        <mxCell id="QgCSMlxWgUbur18fvCFO-247" value="created_at" style="ellipse;whiteSpace=wrap;html=1;" vertex="1" parent="1">
          <mxGeometry x="1283" y="2575" width="120" height="80" as="geometry" />
        </mxCell>
        <mxCell id="QgCSMlxWgUbur18fvCFO-248" style="rounded=0;orthogonalLoop=1;jettySize=auto;html=1;exitX=0.5;exitY=1;exitDx=0;exitDy=0;entryX=0.996;entryY=0.442;entryDx=0;entryDy=0;entryPerimeter=0;endArrow=none;endFill=0;" edge="1" parent="1" source="QgCSMlxWgUbur18fvCFO-241" target="QgCSMlxWgUbur18fvCFO-247">
          <mxGeometry relative="1" as="geometry" />
        </mxCell>
        <mxCell id="QgCSMlxWgUbur18fvCFO-249" style="rounded=0;orthogonalLoop=1;jettySize=auto;html=1;entryX=1;entryY=1;entryDx=0;entryDy=0;endArrow=none;endFill=0;" edge="1" parent="1" source="QgCSMlxWgUbur18fvCFO-254" target="QgCSMlxWgUbur18fvCFO-255">
          <mxGeometry relative="1" as="geometry" />
        </mxCell>
        <mxCell id="QgCSMlxWgUbur18fvCFO-250" style="rounded=0;orthogonalLoop=1;jettySize=auto;html=1;exitX=0.5;exitY=0;exitDx=0;exitDy=0;entryX=0.5;entryY=1;entryDx=0;entryDy=0;endArrow=none;endFill=0;" edge="1" parent="1" source="QgCSMlxWgUbur18fvCFO-254" target="QgCSMlxWgUbur18fvCFO-256">
          <mxGeometry relative="1" as="geometry" />
        </mxCell>
        <mxCell id="QgCSMlxWgUbur18fvCFO-251" style="rounded=0;orthogonalLoop=1;jettySize=auto;html=1;exitX=1;exitY=0;exitDx=0;exitDy=0;entryX=0;entryY=0.5;entryDx=0;entryDy=0;endArrow=none;endFill=0;" edge="1" parent="1" source="QgCSMlxWgUbur18fvCFO-254" target="QgCSMlxWgUbur18fvCFO-257">
          <mxGeometry relative="1" as="geometry" />
        </mxCell>
        <mxCell id="QgCSMlxWgUbur18fvCFO-252" style="rounded=0;orthogonalLoop=1;jettySize=auto;html=1;exitX=1;exitY=0.5;exitDx=0;exitDy=0;endArrow=none;endFill=0;" edge="1" parent="1" source="QgCSMlxWgUbur18fvCFO-254" target="QgCSMlxWgUbur18fvCFO-258">
          <mxGeometry relative="1" as="geometry" />
        </mxCell>
        <mxCell id="QgCSMlxWgUbur18fvCFO-253" style="rounded=0;orthogonalLoop=1;jettySize=auto;html=1;exitX=0;exitY=1;exitDx=0;exitDy=0;entryX=1;entryY=1;entryDx=0;entryDy=0;endArrow=none;endFill=0;" edge="1" parent="1" source="QgCSMlxWgUbur18fvCFO-254" target="QgCSMlxWgUbur18fvCFO-259">
          <mxGeometry relative="1" as="geometry" />
        </mxCell>
        <mxCell id="QgCSMlxWgUbur18fvCFO-254" value="Analysis_and_Determination_of the_Management_Unit Development_Programs" style="rounded=0;whiteSpace=wrap;html=1;" vertex="1" parent="1">
          <mxGeometry x="1960" y="2478" width="190" height="60" as="geometry" />
        </mxCell>
        <mxCell id="QgCSMlxWgUbur18fvCFO-255" value="&lt;u&gt;id&lt;/u&gt;" style="ellipse;whiteSpace=wrap;html=1;" vertex="1" parent="1">
          <mxGeometry x="1824" y="2358" width="120" height="80" as="geometry" />
        </mxCell>
        <mxCell id="QgCSMlxWgUbur18fvCFO-256" value="description" style="ellipse;whiteSpace=wrap;html=1;" vertex="1" parent="1">
          <mxGeometry x="1980" y="2338" width="120" height="80" as="geometry" />
        </mxCell>
        <mxCell id="QgCSMlxWgUbur18fvCFO-257" value="uri" style="ellipse;whiteSpace=wrap;html=1;" vertex="1" parent="1">
          <mxGeometry x="2180" y="2373" width="120" height="80" as="geometry" />
        </mxCell>
        <mxCell id="QgCSMlxWgUbur18fvCFO-258" value="archive_type" style="ellipse;whiteSpace=wrap;html=1;" vertex="1" parent="1">
          <mxGeometry x="2170" y="2548" width="120" height="80" as="geometry" />
        </mxCell>
        <mxCell id="QgCSMlxWgUbur18fvCFO-259" value="updated_at" style="ellipse;whiteSpace=wrap;html=1;" vertex="1" parent="1">
          <mxGeometry x="1780" y="2468" width="120" height="80" as="geometry" />
        </mxCell>
        <mxCell id="QgCSMlxWgUbur18fvCFO-260" value="created_at" style="ellipse;whiteSpace=wrap;html=1;" vertex="1" parent="1">
          <mxGeometry x="1850" y="2583" width="120" height="80" as="geometry" />
        </mxCell>
        <mxCell id="QgCSMlxWgUbur18fvCFO-261" style="rounded=0;orthogonalLoop=1;jettySize=auto;html=1;exitX=0.5;exitY=1;exitDx=0;exitDy=0;entryX=0.996;entryY=0.442;entryDx=0;entryDy=0;entryPerimeter=0;endArrow=none;endFill=0;" edge="1" parent="1" source="QgCSMlxWgUbur18fvCFO-254" target="QgCSMlxWgUbur18fvCFO-260">
          <mxGeometry relative="1" as="geometry" />
        </mxCell>
        <mxCell id="QgCSMlxWgUbur18fvCFO-262" value="" style="rounded=0;whiteSpace=wrap;html=1;" vertex="1" parent="1">
          <mxGeometry x="3580" y="270" width="2410" height="570" as="geometry" />
        </mxCell>
        <mxCell id="QgCSMlxWgUbur18fvCFO-263" style="rounded=0;orthogonalLoop=1;jettySize=auto;html=1;entryX=1;entryY=1;entryDx=0;entryDy=0;endArrow=none;endFill=0;" edge="1" parent="1" source="QgCSMlxWgUbur18fvCFO-268" target="QgCSMlxWgUbur18fvCFO-269">
          <mxGeometry relative="1" as="geometry" />
        </mxCell>
        <mxCell id="QgCSMlxWgUbur18fvCFO-264" style="rounded=0;orthogonalLoop=1;jettySize=auto;html=1;exitX=0.5;exitY=0;exitDx=0;exitDy=0;entryX=0.5;entryY=1;entryDx=0;entryDy=0;endArrow=none;endFill=0;" edge="1" parent="1" source="QgCSMlxWgUbur18fvCFO-268" target="QgCSMlxWgUbur18fvCFO-270">
          <mxGeometry relative="1" as="geometry" />
        </mxCell>
        <mxCell id="QgCSMlxWgUbur18fvCFO-265" style="rounded=0;orthogonalLoop=1;jettySize=auto;html=1;exitX=1;exitY=0;exitDx=0;exitDy=0;entryX=0;entryY=0.5;entryDx=0;entryDy=0;endArrow=none;endFill=0;" edge="1" parent="1" source="QgCSMlxWgUbur18fvCFO-268" target="QgCSMlxWgUbur18fvCFO-271">
          <mxGeometry relative="1" as="geometry" />
        </mxCell>
        <mxCell id="QgCSMlxWgUbur18fvCFO-267" style="rounded=0;orthogonalLoop=1;jettySize=auto;html=1;exitX=0;exitY=1;exitDx=0;exitDy=0;entryX=1;entryY=1;entryDx=0;entryDy=0;endArrow=none;endFill=0;" edge="1" parent="1" source="QgCSMlxWgUbur18fvCFO-268" target="QgCSMlxWgUbur18fvCFO-273">
          <mxGeometry relative="1" as="geometry" />
        </mxCell>
        <mxCell id="QgCSMlxWgUbur18fvCFO-268" value="formulirs" style="rounded=0;whiteSpace=wrap;html=1;" vertex="1" parent="1">
          <mxGeometry x="3810" y="540" width="120" height="60" as="geometry" />
        </mxCell>
        <mxCell id="QgCSMlxWgUbur18fvCFO-269" value="&lt;u&gt;id&lt;/u&gt;" style="ellipse;whiteSpace=wrap;html=1;" vertex="1" parent="1">
          <mxGeometry x="3674" y="420" width="120" height="80" as="geometry" />
        </mxCell>
        <mxCell id="QgCSMlxWgUbur18fvCFO-270" value="description" style="ellipse;whiteSpace=wrap;html=1;" vertex="1" parent="1">
          <mxGeometry x="3830" y="400" width="120" height="80" as="geometry" />
        </mxCell>
        <mxCell id="QgCSMlxWgUbur18fvCFO-271" value="uri" style="ellipse;whiteSpace=wrap;html=1;" vertex="1" parent="1">
          <mxGeometry x="3990" y="470" width="120" height="80" as="geometry" />
        </mxCell>
        <mxCell id="QgCSMlxWgUbur18fvCFO-273" value="updated_at" style="ellipse;whiteSpace=wrap;html=1;" vertex="1" parent="1">
          <mxGeometry x="3630" y="530" width="120" height="80" as="geometry" />
        </mxCell>
        <mxCell id="QgCSMlxWgUbur18fvCFO-274" value="created_at" style="ellipse;whiteSpace=wrap;html=1;" vertex="1" parent="1">
          <mxGeometry x="3700" y="645" width="120" height="80" as="geometry" />
        </mxCell>
        <mxCell id="QgCSMlxWgUbur18fvCFO-275" style="rounded=0;orthogonalLoop=1;jettySize=auto;html=1;exitX=0.5;exitY=1;exitDx=0;exitDy=0;entryX=0.996;entryY=0.442;entryDx=0;entryDy=0;entryPerimeter=0;endArrow=none;endFill=0;" edge="1" parent="1" source="QgCSMlxWgUbur18fvCFO-268" target="QgCSMlxWgUbur18fvCFO-274">
          <mxGeometry relative="1" as="geometry" />
        </mxCell>
        <mxCell id="QgCSMlxWgUbur18fvCFO-276" style="rounded=0;orthogonalLoop=1;jettySize=auto;html=1;entryX=1;entryY=1;entryDx=0;entryDy=0;endArrow=none;endFill=0;" edge="1" parent="1" source="QgCSMlxWgUbur18fvCFO-281" target="QgCSMlxWgUbur18fvCFO-282">
          <mxGeometry relative="1" as="geometry" />
        </mxCell>
        <mxCell id="QgCSMlxWgUbur18fvCFO-277" style="rounded=0;orthogonalLoop=1;jettySize=auto;html=1;exitX=0.5;exitY=0;exitDx=0;exitDy=0;entryX=0.5;entryY=1;entryDx=0;entryDy=0;endArrow=none;endFill=0;" edge="1" parent="1" source="QgCSMlxWgUbur18fvCFO-281" target="QgCSMlxWgUbur18fvCFO-283">
          <mxGeometry relative="1" as="geometry" />
        </mxCell>
        <mxCell id="QgCSMlxWgUbur18fvCFO-278" style="rounded=0;orthogonalLoop=1;jettySize=auto;html=1;exitX=1;exitY=0;exitDx=0;exitDy=0;entryX=0;entryY=0.5;entryDx=0;entryDy=0;endArrow=none;endFill=0;" edge="1" parent="1" source="QgCSMlxWgUbur18fvCFO-281" target="QgCSMlxWgUbur18fvCFO-284">
          <mxGeometry relative="1" as="geometry" />
        </mxCell>
        <mxCell id="QgCSMlxWgUbur18fvCFO-280" style="rounded=0;orthogonalLoop=1;jettySize=auto;html=1;exitX=0;exitY=1;exitDx=0;exitDy=0;entryX=1;entryY=1;entryDx=0;entryDy=0;endArrow=none;endFill=0;" edge="1" parent="1" source="QgCSMlxWgUbur18fvCFO-281" target="QgCSMlxWgUbur18fvCFO-286">
          <mxGeometry relative="1" as="geometry" />
        </mxCell>
        <mxCell id="QgCSMlxWgUbur18fvCFO-281" value="policies" style="rounded=0;whiteSpace=wrap;html=1;" vertex="1" parent="1">
          <mxGeometry x="4400" y="545" width="190" height="60" as="geometry" />
        </mxCell>
        <mxCell id="QgCSMlxWgUbur18fvCFO-282" value="&lt;u&gt;id&lt;/u&gt;" style="ellipse;whiteSpace=wrap;html=1;" vertex="1" parent="1">
          <mxGeometry x="4264" y="425" width="120" height="80" as="geometry" />
        </mxCell>
        <mxCell id="QgCSMlxWgUbur18fvCFO-283" value="description" style="ellipse;whiteSpace=wrap;html=1;" vertex="1" parent="1">
          <mxGeometry x="4420" y="405" width="120" height="80" as="geometry" />
        </mxCell>
        <mxCell id="QgCSMlxWgUbur18fvCFO-284" value="uri" style="ellipse;whiteSpace=wrap;html=1;" vertex="1" parent="1">
          <mxGeometry x="4620" y="440" width="120" height="80" as="geometry" />
        </mxCell>
        <mxCell id="QgCSMlxWgUbur18fvCFO-286" value="updated_at" style="ellipse;whiteSpace=wrap;html=1;" vertex="1" parent="1">
          <mxGeometry x="4220" y="535" width="120" height="80" as="geometry" />
        </mxCell>
        <mxCell id="QgCSMlxWgUbur18fvCFO-287" value="created_at" style="ellipse;whiteSpace=wrap;html=1;" vertex="1" parent="1">
          <mxGeometry x="4290" y="650" width="120" height="80" as="geometry" />
        </mxCell>
        <mxCell id="QgCSMlxWgUbur18fvCFO-288" style="rounded=0;orthogonalLoop=1;jettySize=auto;html=1;exitX=0.5;exitY=1;exitDx=0;exitDy=0;entryX=0.996;entryY=0.442;entryDx=0;entryDy=0;entryPerimeter=0;endArrow=none;endFill=0;" edge="1" parent="1" source="QgCSMlxWgUbur18fvCFO-281" target="QgCSMlxWgUbur18fvCFO-287">
          <mxGeometry relative="1" as="geometry" />
        </mxCell>
        <mxCell id="QgCSMlxWgUbur18fvCFO-289" style="rounded=0;orthogonalLoop=1;jettySize=auto;html=1;entryX=1;entryY=1;entryDx=0;entryDy=0;endArrow=none;endFill=0;" edge="1" parent="1" source="QgCSMlxWgUbur18fvCFO-294" target="QgCSMlxWgUbur18fvCFO-295">
          <mxGeometry relative="1" as="geometry" />
        </mxCell>
        <mxCell id="QgCSMlxWgUbur18fvCFO-290" style="rounded=0;orthogonalLoop=1;jettySize=auto;html=1;exitX=0.5;exitY=0;exitDx=0;exitDy=0;entryX=0.5;entryY=1;entryDx=0;entryDy=0;endArrow=none;endFill=0;" edge="1" parent="1" source="QgCSMlxWgUbur18fvCFO-294" target="QgCSMlxWgUbur18fvCFO-296">
          <mxGeometry relative="1" as="geometry" />
        </mxCell>
        <mxCell id="QgCSMlxWgUbur18fvCFO-291" style="rounded=0;orthogonalLoop=1;jettySize=auto;html=1;exitX=1;exitY=0;exitDx=0;exitDy=0;entryX=0;entryY=0.5;entryDx=0;entryDy=0;endArrow=none;endFill=0;" edge="1" parent="1" source="QgCSMlxWgUbur18fvCFO-294" target="QgCSMlxWgUbur18fvCFO-297">
          <mxGeometry relative="1" as="geometry" />
        </mxCell>
        <mxCell id="QgCSMlxWgUbur18fvCFO-293" style="rounded=0;orthogonalLoop=1;jettySize=auto;html=1;exitX=0;exitY=1;exitDx=0;exitDy=0;entryX=1;entryY=1;entryDx=0;entryDy=0;endArrow=none;endFill=0;" edge="1" parent="1" source="QgCSMlxWgUbur18fvCFO-294" target="QgCSMlxWgUbur18fvCFO-299">
          <mxGeometry relative="1" as="geometry" />
        </mxCell>
        <mxCell id="QgCSMlxWgUbur18fvCFO-294" value="standardts" style="rounded=0;whiteSpace=wrap;html=1;" vertex="1" parent="1">
          <mxGeometry x="5000" y="540" width="190" height="60" as="geometry" />
        </mxCell>
        <mxCell id="QgCSMlxWgUbur18fvCFO-295" value="&lt;u&gt;id&lt;/u&gt;" style="ellipse;whiteSpace=wrap;html=1;" vertex="1" parent="1">
          <mxGeometry x="4864" y="420" width="120" height="80" as="geometry" />
        </mxCell>
        <mxCell id="QgCSMlxWgUbur18fvCFO-296" value="description" style="ellipse;whiteSpace=wrap;html=1;" vertex="1" parent="1">
          <mxGeometry x="5020" y="400" width="120" height="80" as="geometry" />
        </mxCell>
        <mxCell id="QgCSMlxWgUbur18fvCFO-297" value="uri" style="ellipse;whiteSpace=wrap;html=1;" vertex="1" parent="1">
          <mxGeometry x="5220" y="435" width="120" height="80" as="geometry" />
        </mxCell>
        <mxCell id="QgCSMlxWgUbur18fvCFO-299" value="updated_at" style="ellipse;whiteSpace=wrap;html=1;" vertex="1" parent="1">
          <mxGeometry x="4820" y="530" width="120" height="80" as="geometry" />
        </mxCell>
        <mxCell id="QgCSMlxWgUbur18fvCFO-300" value="created_at" style="ellipse;whiteSpace=wrap;html=1;" vertex="1" parent="1">
          <mxGeometry x="4890" y="645" width="120" height="80" as="geometry" />
        </mxCell>
        <mxCell id="QgCSMlxWgUbur18fvCFO-301" style="rounded=0;orthogonalLoop=1;jettySize=auto;html=1;exitX=0.5;exitY=1;exitDx=0;exitDy=0;entryX=0.996;entryY=0.442;entryDx=0;entryDy=0;entryPerimeter=0;endArrow=none;endFill=0;" edge="1" parent="1" source="QgCSMlxWgUbur18fvCFO-294" target="QgCSMlxWgUbur18fvCFO-300">
          <mxGeometry relative="1" as="geometry" />
        </mxCell>
        <mxCell id="QgCSMlxWgUbur18fvCFO-302" style="rounded=0;orthogonalLoop=1;jettySize=auto;html=1;entryX=1;entryY=1;entryDx=0;entryDy=0;endArrow=none;endFill=0;" edge="1" parent="1" source="QgCSMlxWgUbur18fvCFO-307" target="QgCSMlxWgUbur18fvCFO-308">
          <mxGeometry relative="1" as="geometry" />
        </mxCell>
        <mxCell id="QgCSMlxWgUbur18fvCFO-303" style="rounded=0;orthogonalLoop=1;jettySize=auto;html=1;exitX=0.5;exitY=0;exitDx=0;exitDy=0;entryX=0.5;entryY=1;entryDx=0;entryDy=0;endArrow=none;endFill=0;" edge="1" parent="1" source="QgCSMlxWgUbur18fvCFO-307" target="QgCSMlxWgUbur18fvCFO-309">
          <mxGeometry relative="1" as="geometry" />
        </mxCell>
        <mxCell id="QgCSMlxWgUbur18fvCFO-304" style="rounded=0;orthogonalLoop=1;jettySize=auto;html=1;exitX=1;exitY=0;exitDx=0;exitDy=0;entryX=0;entryY=0.5;entryDx=0;entryDy=0;endArrow=none;endFill=0;" edge="1" parent="1" source="QgCSMlxWgUbur18fvCFO-307" target="QgCSMlxWgUbur18fvCFO-310">
          <mxGeometry relative="1" as="geometry" />
        </mxCell>
        <mxCell id="QgCSMlxWgUbur18fvCFO-306" style="rounded=0;orthogonalLoop=1;jettySize=auto;html=1;exitX=0;exitY=1;exitDx=0;exitDy=0;entryX=1;entryY=1;entryDx=0;entryDy=0;endArrow=none;endFill=0;" edge="1" parent="1" source="QgCSMlxWgUbur18fvCFO-307" target="QgCSMlxWgUbur18fvCFO-312">
          <mxGeometry relative="1" as="geometry" />
        </mxCell>
        <mxCell id="QgCSMlxWgUbur18fvCFO-307" value="manuals" style="rounded=0;whiteSpace=wrap;html=1;" vertex="1" parent="1">
          <mxGeometry x="5580" y="560" width="190" height="60" as="geometry" />
        </mxCell>
        <mxCell id="QgCSMlxWgUbur18fvCFO-308" value="&lt;u&gt;id&lt;/u&gt;" style="ellipse;whiteSpace=wrap;html=1;" vertex="1" parent="1">
          <mxGeometry x="5444" y="440" width="120" height="80" as="geometry" />
        </mxCell>
        <mxCell id="QgCSMlxWgUbur18fvCFO-309" value="description" style="ellipse;whiteSpace=wrap;html=1;" vertex="1" parent="1">
          <mxGeometry x="5600" y="420" width="120" height="80" as="geometry" />
        </mxCell>
        <mxCell id="QgCSMlxWgUbur18fvCFO-310" value="uri" style="ellipse;whiteSpace=wrap;html=1;" vertex="1" parent="1">
          <mxGeometry x="5800" y="455" width="120" height="80" as="geometry" />
        </mxCell>
        <mxCell id="QgCSMlxWgUbur18fvCFO-312" value="updated_at" style="ellipse;whiteSpace=wrap;html=1;" vertex="1" parent="1">
          <mxGeometry x="5400" y="550" width="120" height="80" as="geometry" />
        </mxCell>
        <mxCell id="QgCSMlxWgUbur18fvCFO-313" value="created_at" style="ellipse;whiteSpace=wrap;html=1;" vertex="1" parent="1">
          <mxGeometry x="5470" y="665" width="120" height="80" as="geometry" />
        </mxCell>
        <mxCell id="QgCSMlxWgUbur18fvCFO-314" style="rounded=0;orthogonalLoop=1;jettySize=auto;html=1;exitX=0.5;exitY=1;exitDx=0;exitDy=0;entryX=0.996;entryY=0.442;entryDx=0;entryDy=0;entryPerimeter=0;endArrow=none;endFill=0;" edge="1" parent="1" source="QgCSMlxWgUbur18fvCFO-307" target="QgCSMlxWgUbur18fvCFO-313">
          <mxGeometry relative="1" as="geometry" />
        </mxCell>
        <mxCell id="QgCSMlxWgUbur18fvCFO-315" value="&lt;span style=&quot;font-size: 30px;&quot;&gt;Penjaminan mutu&lt;/span&gt;" style="text;html=1;strokeColor=none;fillColor=none;align=center;verticalAlign=middle;whiteSpace=wrap;rounded=0;" vertex="1" parent="1">
          <mxGeometry x="4070" y="290" width="470" height="30" as="geometry" />
        </mxCell>
        <mxCell id="QgCSMlxWgUbur18fvCFO-316" value="" style="rounded=0;whiteSpace=wrap;html=1;" vertex="1" parent="1">
          <mxGeometry x="3490" y="1150" width="970" height="570" as="geometry" />
        </mxCell>
        <mxCell id="QgCSMlxWgUbur18fvCFO-317" style="rounded=0;orthogonalLoop=1;jettySize=auto;html=1;entryX=1;entryY=1;entryDx=0;entryDy=0;endArrow=none;endFill=0;" edge="1" parent="1" source="QgCSMlxWgUbur18fvCFO-321" target="QgCSMlxWgUbur18fvCFO-322">
          <mxGeometry relative="1" as="geometry" />
        </mxCell>
        <mxCell id="QgCSMlxWgUbur18fvCFO-318" style="rounded=0;orthogonalLoop=1;jettySize=auto;html=1;exitX=0.5;exitY=0;exitDx=0;exitDy=0;entryX=0.5;entryY=1;entryDx=0;entryDy=0;endArrow=none;endFill=0;" edge="1" parent="1" source="QgCSMlxWgUbur18fvCFO-321" target="QgCSMlxWgUbur18fvCFO-323">
          <mxGeometry relative="1" as="geometry" />
        </mxCell>
        <mxCell id="QgCSMlxWgUbur18fvCFO-319" style="rounded=0;orthogonalLoop=1;jettySize=auto;html=1;exitX=1;exitY=0;exitDx=0;exitDy=0;entryX=0;entryY=0.5;entryDx=0;entryDy=0;endArrow=none;endFill=0;" edge="1" parent="1" source="QgCSMlxWgUbur18fvCFO-321" target="QgCSMlxWgUbur18fvCFO-324">
          <mxGeometry relative="1" as="geometry" />
        </mxCell>
        <mxCell id="QgCSMlxWgUbur18fvCFO-320" style="rounded=0;orthogonalLoop=1;jettySize=auto;html=1;exitX=0;exitY=1;exitDx=0;exitDy=0;entryX=1;entryY=1;entryDx=0;entryDy=0;endArrow=none;endFill=0;" edge="1" parent="1" source="QgCSMlxWgUbur18fvCFO-321" target="QgCSMlxWgUbur18fvCFO-325">
          <mxGeometry relative="1" as="geometry" />
        </mxCell>
        <mxCell id="QgCSMlxWgUbur18fvCFO-321" value="research_documents" style="rounded=0;whiteSpace=wrap;html=1;" vertex="1" parent="1">
          <mxGeometry x="3720" y="1420" width="120" height="60" as="geometry" />
        </mxCell>
        <mxCell id="QgCSMlxWgUbur18fvCFO-322" value="&lt;u&gt;id&lt;/u&gt;" style="ellipse;whiteSpace=wrap;html=1;" vertex="1" parent="1">
          <mxGeometry x="3584" y="1300" width="120" height="80" as="geometry" />
        </mxCell>
        <mxCell id="QgCSMlxWgUbur18fvCFO-323" value="description" style="ellipse;whiteSpace=wrap;html=1;" vertex="1" parent="1">
          <mxGeometry x="3740" y="1280" width="120" height="80" as="geometry" />
        </mxCell>
        <mxCell id="QgCSMlxWgUbur18fvCFO-324" value="uri" style="ellipse;whiteSpace=wrap;html=1;" vertex="1" parent="1">
          <mxGeometry x="3900" y="1350" width="120" height="80" as="geometry" />
        </mxCell>
        <mxCell id="QgCSMlxWgUbur18fvCFO-325" value="updated_at" style="ellipse;whiteSpace=wrap;html=1;" vertex="1" parent="1">
          <mxGeometry x="3540" y="1410" width="120" height="80" as="geometry" />
        </mxCell>
        <mxCell id="QgCSMlxWgUbur18fvCFO-326" value="created_at" style="ellipse;whiteSpace=wrap;html=1;" vertex="1" parent="1">
          <mxGeometry x="3610" y="1525" width="120" height="80" as="geometry" />
        </mxCell>
        <mxCell id="QgCSMlxWgUbur18fvCFO-327" style="rounded=0;orthogonalLoop=1;jettySize=auto;html=1;exitX=0.5;exitY=1;exitDx=0;exitDy=0;entryX=0.996;entryY=0.442;entryDx=0;entryDy=0;entryPerimeter=0;endArrow=none;endFill=0;" edge="1" parent="1" source="QgCSMlxWgUbur18fvCFO-321" target="QgCSMlxWgUbur18fvCFO-326">
          <mxGeometry relative="1" as="geometry" />
        </mxCell>
        <mxCell id="QgCSMlxWgUbur18fvCFO-361" value="&lt;span style=&quot;font-size: 30px;&quot;&gt;LPPM&lt;/span&gt;" style="text;html=1;strokeColor=none;fillColor=none;align=center;verticalAlign=middle;whiteSpace=wrap;rounded=0;" vertex="1" parent="1">
          <mxGeometry x="3980" y="1170" width="470" height="30" as="geometry" />
        </mxCell>
        <mxCell id="QgCSMlxWgUbur18fvCFO-362" value="" style="rounded=0;whiteSpace=wrap;html=1;" vertex="1" parent="1">
          <mxGeometry x="3510" y="1960" width="2410" height="1180" as="geometry" />
        </mxCell>
        <mxCell id="QgCSMlxWgUbur18fvCFO-363" style="rounded=0;orthogonalLoop=1;jettySize=auto;html=1;entryX=1;entryY=1;entryDx=0;entryDy=0;endArrow=none;endFill=0;" edge="1" parent="1" source="QgCSMlxWgUbur18fvCFO-367" target="QgCSMlxWgUbur18fvCFO-368">
          <mxGeometry relative="1" as="geometry" />
        </mxCell>
        <mxCell id="QgCSMlxWgUbur18fvCFO-364" style="rounded=0;orthogonalLoop=1;jettySize=auto;html=1;exitX=0.5;exitY=0;exitDx=0;exitDy=0;entryX=0.5;entryY=1;entryDx=0;entryDy=0;endArrow=none;endFill=0;" edge="1" parent="1" source="QgCSMlxWgUbur18fvCFO-367" target="QgCSMlxWgUbur18fvCFO-369">
          <mxGeometry relative="1" as="geometry" />
        </mxCell>
        <mxCell id="QgCSMlxWgUbur18fvCFO-365" style="rounded=0;orthogonalLoop=1;jettySize=auto;html=1;exitX=1;exitY=0;exitDx=0;exitDy=0;entryX=0;entryY=0.5;entryDx=0;entryDy=0;endArrow=none;endFill=0;" edge="1" parent="1" source="QgCSMlxWgUbur18fvCFO-367" target="QgCSMlxWgUbur18fvCFO-370">
          <mxGeometry relative="1" as="geometry" />
        </mxCell>
        <mxCell id="QgCSMlxWgUbur18fvCFO-366" style="rounded=0;orthogonalLoop=1;jettySize=auto;html=1;exitX=0;exitY=1;exitDx=0;exitDy=0;entryX=1;entryY=1;entryDx=0;entryDy=0;endArrow=none;endFill=0;" edge="1" parent="1" source="QgCSMlxWgUbur18fvCFO-367" target="QgCSMlxWgUbur18fvCFO-371">
          <mxGeometry relative="1" as="geometry" />
        </mxCell>
        <mxCell id="QgCSMlxWgUbur18fvCFO-367" value="college_handbooks" style="rounded=0;whiteSpace=wrap;html=1;" vertex="1" parent="1">
          <mxGeometry x="3740" y="2230" width="120" height="60" as="geometry" />
        </mxCell>
        <mxCell id="QgCSMlxWgUbur18fvCFO-368" value="&lt;u&gt;id&lt;/u&gt;" style="ellipse;whiteSpace=wrap;html=1;" vertex="1" parent="1">
          <mxGeometry x="3604" y="2110" width="120" height="80" as="geometry" />
        </mxCell>
        <mxCell id="QgCSMlxWgUbur18fvCFO-369" value="description" style="ellipse;whiteSpace=wrap;html=1;" vertex="1" parent="1">
          <mxGeometry x="3760" y="2090" width="120" height="80" as="geometry" />
        </mxCell>
        <mxCell id="QgCSMlxWgUbur18fvCFO-370" value="uri" style="ellipse;whiteSpace=wrap;html=1;" vertex="1" parent="1">
          <mxGeometry x="3920" y="2160" width="120" height="80" as="geometry" />
        </mxCell>
        <mxCell id="QgCSMlxWgUbur18fvCFO-371" value="updated_at" style="ellipse;whiteSpace=wrap;html=1;" vertex="1" parent="1">
          <mxGeometry x="3560" y="2220" width="120" height="80" as="geometry" />
        </mxCell>
        <mxCell id="QgCSMlxWgUbur18fvCFO-372" value="created_at" style="ellipse;whiteSpace=wrap;html=1;" vertex="1" parent="1">
          <mxGeometry x="3630" y="2335" width="120" height="80" as="geometry" />
        </mxCell>
        <mxCell id="QgCSMlxWgUbur18fvCFO-373" style="rounded=0;orthogonalLoop=1;jettySize=auto;html=1;exitX=0.5;exitY=1;exitDx=0;exitDy=0;entryX=0.996;entryY=0.442;entryDx=0;entryDy=0;entryPerimeter=0;endArrow=none;endFill=0;" edge="1" parent="1" source="QgCSMlxWgUbur18fvCFO-367" target="QgCSMlxWgUbur18fvCFO-372">
          <mxGeometry relative="1" as="geometry" />
        </mxCell>
        <mxCell id="QgCSMlxWgUbur18fvCFO-374" style="rounded=0;orthogonalLoop=1;jettySize=auto;html=1;entryX=1;entryY=1;entryDx=0;entryDy=0;endArrow=none;endFill=0;" edge="1" parent="1" source="QgCSMlxWgUbur18fvCFO-378" target="QgCSMlxWgUbur18fvCFO-379">
          <mxGeometry relative="1" as="geometry" />
        </mxCell>
        <mxCell id="QgCSMlxWgUbur18fvCFO-375" style="rounded=0;orthogonalLoop=1;jettySize=auto;html=1;exitX=0.5;exitY=0;exitDx=0;exitDy=0;entryX=0.5;entryY=1;entryDx=0;entryDy=0;endArrow=none;endFill=0;" edge="1" parent="1" source="QgCSMlxWgUbur18fvCFO-378" target="QgCSMlxWgUbur18fvCFO-380">
          <mxGeometry relative="1" as="geometry" />
        </mxCell>
        <mxCell id="QgCSMlxWgUbur18fvCFO-376" style="rounded=0;orthogonalLoop=1;jettySize=auto;html=1;exitX=1;exitY=0;exitDx=0;exitDy=0;entryX=0;entryY=0.5;entryDx=0;entryDy=0;endArrow=none;endFill=0;" edge="1" parent="1" source="QgCSMlxWgUbur18fvCFO-378" target="QgCSMlxWgUbur18fvCFO-381">
          <mxGeometry relative="1" as="geometry" />
        </mxCell>
        <mxCell id="QgCSMlxWgUbur18fvCFO-377" style="rounded=0;orthogonalLoop=1;jettySize=auto;html=1;exitX=0;exitY=1;exitDx=0;exitDy=0;entryX=1;entryY=1;entryDx=0;entryDy=0;endArrow=none;endFill=0;" edge="1" parent="1" source="QgCSMlxWgUbur18fvCFO-378" target="QgCSMlxWgUbur18fvCFO-382">
          <mxGeometry relative="1" as="geometry" />
        </mxCell>
        <mxCell id="QgCSMlxWgUbur18fvCFO-378" value="college_contracts" style="rounded=0;whiteSpace=wrap;html=1;" vertex="1" parent="1">
          <mxGeometry x="4330" y="2235" width="190" height="60" as="geometry" />
        </mxCell>
        <mxCell id="QgCSMlxWgUbur18fvCFO-379" value="&lt;u&gt;id&lt;/u&gt;" style="ellipse;whiteSpace=wrap;html=1;" vertex="1" parent="1">
          <mxGeometry x="4194" y="2115" width="120" height="80" as="geometry" />
        </mxCell>
        <mxCell id="QgCSMlxWgUbur18fvCFO-380" value="description" style="ellipse;whiteSpace=wrap;html=1;" vertex="1" parent="1">
          <mxGeometry x="4350" y="2095" width="120" height="80" as="geometry" />
        </mxCell>
        <mxCell id="QgCSMlxWgUbur18fvCFO-381" value="uri" style="ellipse;whiteSpace=wrap;html=1;" vertex="1" parent="1">
          <mxGeometry x="4550" y="2130" width="120" height="80" as="geometry" />
        </mxCell>
        <mxCell id="QgCSMlxWgUbur18fvCFO-382" value="updated_at" style="ellipse;whiteSpace=wrap;html=1;" vertex="1" parent="1">
          <mxGeometry x="4150" y="2225" width="120" height="80" as="geometry" />
        </mxCell>
        <mxCell id="QgCSMlxWgUbur18fvCFO-383" value="created_at" style="ellipse;whiteSpace=wrap;html=1;" vertex="1" parent="1">
          <mxGeometry x="4220" y="2340" width="120" height="80" as="geometry" />
        </mxCell>
        <mxCell id="QgCSMlxWgUbur18fvCFO-384" style="rounded=0;orthogonalLoop=1;jettySize=auto;html=1;exitX=0.5;exitY=1;exitDx=0;exitDy=0;entryX=0.996;entryY=0.442;entryDx=0;entryDy=0;entryPerimeter=0;endArrow=none;endFill=0;" edge="1" parent="1" source="QgCSMlxWgUbur18fvCFO-378" target="QgCSMlxWgUbur18fvCFO-383">
          <mxGeometry relative="1" as="geometry" />
        </mxCell>
        <mxCell id="QgCSMlxWgUbur18fvCFO-385" style="rounded=0;orthogonalLoop=1;jettySize=auto;html=1;entryX=1;entryY=1;entryDx=0;entryDy=0;endArrow=none;endFill=0;" edge="1" parent="1" source="QgCSMlxWgUbur18fvCFO-389" target="QgCSMlxWgUbur18fvCFO-390">
          <mxGeometry relative="1" as="geometry" />
        </mxCell>
        <mxCell id="QgCSMlxWgUbur18fvCFO-386" style="rounded=0;orthogonalLoop=1;jettySize=auto;html=1;exitX=0.5;exitY=0;exitDx=0;exitDy=0;entryX=0.5;entryY=1;entryDx=0;entryDy=0;endArrow=none;endFill=0;" edge="1" parent="1" source="QgCSMlxWgUbur18fvCFO-389" target="QgCSMlxWgUbur18fvCFO-391">
          <mxGeometry relative="1" as="geometry" />
        </mxCell>
        <mxCell id="QgCSMlxWgUbur18fvCFO-387" style="rounded=0;orthogonalLoop=1;jettySize=auto;html=1;exitX=1;exitY=0;exitDx=0;exitDy=0;entryX=0;entryY=0.5;entryDx=0;entryDy=0;endArrow=none;endFill=0;" edge="1" parent="1" source="QgCSMlxWgUbur18fvCFO-389" target="QgCSMlxWgUbur18fvCFO-392">
          <mxGeometry relative="1" as="geometry" />
        </mxCell>
        <mxCell id="QgCSMlxWgUbur18fvCFO-388" style="rounded=0;orthogonalLoop=1;jettySize=auto;html=1;exitX=0;exitY=1;exitDx=0;exitDy=0;entryX=1;entryY=1;entryDx=0;entryDy=0;endArrow=none;endFill=0;" edge="1" parent="1" source="QgCSMlxWgUbur18fvCFO-389" target="QgCSMlxWgUbur18fvCFO-393">
          <mxGeometry relative="1" as="geometry" />
        </mxCell>
        <mxCell id="QgCSMlxWgUbur18fvCFO-389" value="devotions" style="rounded=0;whiteSpace=wrap;html=1;" vertex="1" parent="1">
          <mxGeometry x="4930" y="2230" width="190" height="60" as="geometry" />
        </mxCell>
        <mxCell id="QgCSMlxWgUbur18fvCFO-390" value="&lt;u&gt;id&lt;/u&gt;" style="ellipse;whiteSpace=wrap;html=1;" vertex="1" parent="1">
          <mxGeometry x="4794" y="2110" width="120" height="80" as="geometry" />
        </mxCell>
        <mxCell id="QgCSMlxWgUbur18fvCFO-391" value="description" style="ellipse;whiteSpace=wrap;html=1;" vertex="1" parent="1">
          <mxGeometry x="4950" y="2090" width="120" height="80" as="geometry" />
        </mxCell>
        <mxCell id="QgCSMlxWgUbur18fvCFO-392" value="uri" style="ellipse;whiteSpace=wrap;html=1;" vertex="1" parent="1">
          <mxGeometry x="5150" y="2125" width="120" height="80" as="geometry" />
        </mxCell>
        <mxCell id="QgCSMlxWgUbur18fvCFO-393" value="updated_at" style="ellipse;whiteSpace=wrap;html=1;" vertex="1" parent="1">
          <mxGeometry x="4750" y="2220" width="120" height="80" as="geometry" />
        </mxCell>
        <mxCell id="QgCSMlxWgUbur18fvCFO-394" value="created_at" style="ellipse;whiteSpace=wrap;html=1;" vertex="1" parent="1">
          <mxGeometry x="4820" y="2335" width="120" height="80" as="geometry" />
        </mxCell>
        <mxCell id="QgCSMlxWgUbur18fvCFO-395" style="rounded=0;orthogonalLoop=1;jettySize=auto;html=1;exitX=0.5;exitY=1;exitDx=0;exitDy=0;entryX=0.996;entryY=0.442;entryDx=0;entryDy=0;entryPerimeter=0;endArrow=none;endFill=0;" edge="1" parent="1" source="QgCSMlxWgUbur18fvCFO-389" target="QgCSMlxWgUbur18fvCFO-394">
          <mxGeometry relative="1" as="geometry" />
        </mxCell>
        <mxCell id="QgCSMlxWgUbur18fvCFO-396" style="rounded=0;orthogonalLoop=1;jettySize=auto;html=1;entryX=1;entryY=1;entryDx=0;entryDy=0;endArrow=none;endFill=0;" edge="1" parent="1" source="QgCSMlxWgUbur18fvCFO-400" target="QgCSMlxWgUbur18fvCFO-401">
          <mxGeometry relative="1" as="geometry" />
        </mxCell>
        <mxCell id="QgCSMlxWgUbur18fvCFO-397" style="rounded=0;orthogonalLoop=1;jettySize=auto;html=1;exitX=0.5;exitY=0;exitDx=0;exitDy=0;entryX=0.5;entryY=1;entryDx=0;entryDy=0;endArrow=none;endFill=0;" edge="1" parent="1" source="QgCSMlxWgUbur18fvCFO-400" target="QgCSMlxWgUbur18fvCFO-402">
          <mxGeometry relative="1" as="geometry" />
        </mxCell>
        <mxCell id="QgCSMlxWgUbur18fvCFO-398" style="rounded=0;orthogonalLoop=1;jettySize=auto;html=1;exitX=1;exitY=0;exitDx=0;exitDy=0;entryX=0;entryY=0.5;entryDx=0;entryDy=0;endArrow=none;endFill=0;" edge="1" parent="1" source="QgCSMlxWgUbur18fvCFO-400" target="QgCSMlxWgUbur18fvCFO-403">
          <mxGeometry relative="1" as="geometry" />
        </mxCell>
        <mxCell id="QgCSMlxWgUbur18fvCFO-399" style="rounded=0;orthogonalLoop=1;jettySize=auto;html=1;exitX=0;exitY=1;exitDx=0;exitDy=0;entryX=1;entryY=1;entryDx=0;entryDy=0;endArrow=none;endFill=0;" edge="1" parent="1" source="QgCSMlxWgUbur18fvCFO-400" target="QgCSMlxWgUbur18fvCFO-404">
          <mxGeometry relative="1" as="geometry" />
        </mxCell>
        <mxCell id="QgCSMlxWgUbur18fvCFO-400" value="semester_learning_plans" style="rounded=0;whiteSpace=wrap;html=1;" vertex="1" parent="1">
          <mxGeometry x="5510" y="2250" width="190" height="60" as="geometry" />
        </mxCell>
        <mxCell id="QgCSMlxWgUbur18fvCFO-401" value="&lt;u&gt;id&lt;/u&gt;" style="ellipse;whiteSpace=wrap;html=1;" vertex="1" parent="1">
          <mxGeometry x="5374" y="2130" width="120" height="80" as="geometry" />
        </mxCell>
        <mxCell id="QgCSMlxWgUbur18fvCFO-402" value="description" style="ellipse;whiteSpace=wrap;html=1;" vertex="1" parent="1">
          <mxGeometry x="5530" y="2110" width="120" height="80" as="geometry" />
        </mxCell>
        <mxCell id="QgCSMlxWgUbur18fvCFO-403" value="uri" style="ellipse;whiteSpace=wrap;html=1;" vertex="1" parent="1">
          <mxGeometry x="5730" y="2145" width="120" height="80" as="geometry" />
        </mxCell>
        <mxCell id="QgCSMlxWgUbur18fvCFO-404" value="updated_at" style="ellipse;whiteSpace=wrap;html=1;" vertex="1" parent="1">
          <mxGeometry x="5330" y="2240" width="120" height="80" as="geometry" />
        </mxCell>
        <mxCell id="QgCSMlxWgUbur18fvCFO-405" value="created_at" style="ellipse;whiteSpace=wrap;html=1;" vertex="1" parent="1">
          <mxGeometry x="5400" y="2355" width="120" height="80" as="geometry" />
        </mxCell>
        <mxCell id="QgCSMlxWgUbur18fvCFO-406" style="rounded=0;orthogonalLoop=1;jettySize=auto;html=1;exitX=0.5;exitY=1;exitDx=0;exitDy=0;entryX=0.996;entryY=0.442;entryDx=0;entryDy=0;entryPerimeter=0;endArrow=none;endFill=0;" edge="1" parent="1" source="QgCSMlxWgUbur18fvCFO-400" target="QgCSMlxWgUbur18fvCFO-405">
          <mxGeometry relative="1" as="geometry" />
        </mxCell>
        <mxCell id="QgCSMlxWgUbur18fvCFO-407" value="&lt;span style=&quot;font-size: 30px;&quot;&gt;Download&lt;/span&gt;" style="text;html=1;strokeColor=none;fillColor=none;align=center;verticalAlign=middle;whiteSpace=wrap;rounded=0;" vertex="1" parent="1">
          <mxGeometry x="4000" y="1980" width="470" height="30" as="geometry" />
        </mxCell>
        <mxCell id="QgCSMlxWgUbur18fvCFO-408" style="rounded=0;orthogonalLoop=1;jettySize=auto;html=1;entryX=1;entryY=1;entryDx=0;entryDy=0;endArrow=none;endFill=0;" edge="1" parent="1" source="QgCSMlxWgUbur18fvCFO-412" target="QgCSMlxWgUbur18fvCFO-413">
          <mxGeometry relative="1" as="geometry" />
        </mxCell>
        <mxCell id="QgCSMlxWgUbur18fvCFO-409" style="rounded=0;orthogonalLoop=1;jettySize=auto;html=1;exitX=0.5;exitY=0;exitDx=0;exitDy=0;entryX=0.5;entryY=1;entryDx=0;entryDy=0;endArrow=none;endFill=0;" edge="1" parent="1" source="QgCSMlxWgUbur18fvCFO-412" target="QgCSMlxWgUbur18fvCFO-414">
          <mxGeometry relative="1" as="geometry" />
        </mxCell>
        <mxCell id="QgCSMlxWgUbur18fvCFO-410" style="rounded=0;orthogonalLoop=1;jettySize=auto;html=1;exitX=1;exitY=0;exitDx=0;exitDy=0;entryX=0;entryY=0.5;entryDx=0;entryDy=0;endArrow=none;endFill=0;" edge="1" parent="1" source="QgCSMlxWgUbur18fvCFO-412" target="QgCSMlxWgUbur18fvCFO-415">
          <mxGeometry relative="1" as="geometry" />
        </mxCell>
        <mxCell id="QgCSMlxWgUbur18fvCFO-411" style="rounded=0;orthogonalLoop=1;jettySize=auto;html=1;exitX=0;exitY=1;exitDx=0;exitDy=0;entryX=1;entryY=1;entryDx=0;entryDy=0;endArrow=none;endFill=0;" edge="1" parent="1" source="QgCSMlxWgUbur18fvCFO-412" target="QgCSMlxWgUbur18fvCFO-416">
          <mxGeometry relative="1" as="geometry" />
        </mxCell>
        <mxCell id="QgCSMlxWgUbur18fvCFO-412" value="researches" style="rounded=0;whiteSpace=wrap;html=1;" vertex="1" parent="1">
          <mxGeometry x="3700" y="2740" width="190" height="60" as="geometry" />
        </mxCell>
        <mxCell id="QgCSMlxWgUbur18fvCFO-413" value="&lt;u&gt;id&lt;/u&gt;" style="ellipse;whiteSpace=wrap;html=1;" vertex="1" parent="1">
          <mxGeometry x="3564" y="2620" width="120" height="80" as="geometry" />
        </mxCell>
        <mxCell id="QgCSMlxWgUbur18fvCFO-414" value="description" style="ellipse;whiteSpace=wrap;html=1;" vertex="1" parent="1">
          <mxGeometry x="3720" y="2600" width="120" height="80" as="geometry" />
        </mxCell>
        <mxCell id="QgCSMlxWgUbur18fvCFO-415" value="uri" style="ellipse;whiteSpace=wrap;html=1;" vertex="1" parent="1">
          <mxGeometry x="3920" y="2635" width="120" height="80" as="geometry" />
        </mxCell>
        <mxCell id="QgCSMlxWgUbur18fvCFO-416" value="updated_at" style="ellipse;whiteSpace=wrap;html=1;" vertex="1" parent="1">
          <mxGeometry x="3520" y="2730" width="120" height="80" as="geometry" />
        </mxCell>
        <mxCell id="QgCSMlxWgUbur18fvCFO-417" value="created_at" style="ellipse;whiteSpace=wrap;html=1;" vertex="1" parent="1">
          <mxGeometry x="3590" y="2845" width="120" height="80" as="geometry" />
        </mxCell>
        <mxCell id="QgCSMlxWgUbur18fvCFO-418" style="rounded=0;orthogonalLoop=1;jettySize=auto;html=1;exitX=0.5;exitY=1;exitDx=0;exitDy=0;entryX=0.996;entryY=0.442;entryDx=0;entryDy=0;entryPerimeter=0;endArrow=none;endFill=0;" edge="1" parent="1" source="QgCSMlxWgUbur18fvCFO-412" target="QgCSMlxWgUbur18fvCFO-417">
          <mxGeometry relative="1" as="geometry" />
        </mxCell>
        <mxCell id="QgCSMlxWgUbur18fvCFO-419" style="rounded=0;orthogonalLoop=1;jettySize=auto;html=1;entryX=1;entryY=1;entryDx=0;entryDy=0;endArrow=none;endFill=0;" edge="1" parent="1" source="QgCSMlxWgUbur18fvCFO-423" target="QgCSMlxWgUbur18fvCFO-424">
          <mxGeometry relative="1" as="geometry" />
        </mxCell>
        <mxCell id="QgCSMlxWgUbur18fvCFO-420" style="rounded=0;orthogonalLoop=1;jettySize=auto;html=1;exitX=0.5;exitY=0;exitDx=0;exitDy=0;entryX=0.5;entryY=1;entryDx=0;entryDy=0;endArrow=none;endFill=0;" edge="1" parent="1" source="QgCSMlxWgUbur18fvCFO-423" target="QgCSMlxWgUbur18fvCFO-425">
          <mxGeometry relative="1" as="geometry" />
        </mxCell>
        <mxCell id="QgCSMlxWgUbur18fvCFO-421" style="rounded=0;orthogonalLoop=1;jettySize=auto;html=1;exitX=1;exitY=0;exitDx=0;exitDy=0;entryX=0;entryY=0.5;entryDx=0;entryDy=0;endArrow=none;endFill=0;" edge="1" parent="1" source="QgCSMlxWgUbur18fvCFO-423" target="QgCSMlxWgUbur18fvCFO-426">
          <mxGeometry relative="1" as="geometry" />
        </mxCell>
        <mxCell id="QgCSMlxWgUbur18fvCFO-422" style="rounded=0;orthogonalLoop=1;jettySize=auto;html=1;exitX=0;exitY=1;exitDx=0;exitDy=0;entryX=1;entryY=1;entryDx=0;entryDy=0;endArrow=none;endFill=0;" edge="1" parent="1" source="QgCSMlxWgUbur18fvCFO-423" target="QgCSMlxWgUbur18fvCFO-427">
          <mxGeometry relative="1" as="geometry" />
        </mxCell>
        <mxCell id="QgCSMlxWgUbur18fvCFO-423" value="certificates" style="rounded=0;whiteSpace=wrap;html=1;" vertex="1" parent="1">
          <mxGeometry x="4280" y="2760" width="190" height="60" as="geometry" />
        </mxCell>
        <mxCell id="QgCSMlxWgUbur18fvCFO-424" value="&lt;u&gt;id&lt;/u&gt;" style="ellipse;whiteSpace=wrap;html=1;" vertex="1" parent="1">
          <mxGeometry x="4144" y="2640" width="120" height="80" as="geometry" />
        </mxCell>
        <mxCell id="QgCSMlxWgUbur18fvCFO-425" value="description" style="ellipse;whiteSpace=wrap;html=1;" vertex="1" parent="1">
          <mxGeometry x="4300" y="2620" width="120" height="80" as="geometry" />
        </mxCell>
        <mxCell id="QgCSMlxWgUbur18fvCFO-426" value="uri" style="ellipse;whiteSpace=wrap;html=1;" vertex="1" parent="1">
          <mxGeometry x="4500" y="2655" width="120" height="80" as="geometry" />
        </mxCell>
        <mxCell id="QgCSMlxWgUbur18fvCFO-427" value="updated_at" style="ellipse;whiteSpace=wrap;html=1;" vertex="1" parent="1">
          <mxGeometry x="4100" y="2750" width="120" height="80" as="geometry" />
        </mxCell>
        <mxCell id="QgCSMlxWgUbur18fvCFO-428" value="created_at" style="ellipse;whiteSpace=wrap;html=1;" vertex="1" parent="1">
          <mxGeometry x="4170" y="2865" width="120" height="80" as="geometry" />
        </mxCell>
        <mxCell id="QgCSMlxWgUbur18fvCFO-429" style="rounded=0;orthogonalLoop=1;jettySize=auto;html=1;exitX=0.5;exitY=1;exitDx=0;exitDy=0;entryX=0.996;entryY=0.442;entryDx=0;entryDy=0;entryPerimeter=0;endArrow=none;endFill=0;" edge="1" parent="1" source="QgCSMlxWgUbur18fvCFO-423" target="QgCSMlxWgUbur18fvCFO-428">
          <mxGeometry relative="1" as="geometry" />
        </mxCell>
      </root>
    </mxGraphModel>
  </diagram>
</mxfile>
